vn -0.609175 -0.409518 0.679117
v -2.678415 -17.313961 26.309090
vn 0.220838 -0.965245 -0.139759
v 0.600271 -20.754087 20.444260
vn -0.632629 -0.722852 -0.277967
v -3.253996 -19.091051 21.919184
vn 0.237511 0.966026 0.101899
v -0.233415 30.008614 6.179784
vn 0.734819 -0.235760 -0.635970
v 1.461845 26.164660 6.781712
vn 0.395448 -0.483077 -0.658345
v 0.739443 21.152084 10.296912
vn -0.854834 -0.086416 -0.511655
v -1.423493 26.793673 6.406399
vn -0.823409 0.257666 -0.204203
v -2.315678 21.265276 13.462701
vn -0.399378 -0.408406 -0.596187
v -1.415632 21.713474 10.344823
vn 0.123166 0.600579 0.512501
v 0.378630 24.253193 13.014901
vn -0.631416 0.634383 0.340325
v -1.711778 20.254774 16.703432
vn -0.470847 0.667017 0.577400
v -0.998496 24.617788 12.306944
vn -0.282045 0.637450 0.682966
v -0.661597 20.088720 17.854311
vn 0.311968 0.571012 0.618068
v 0.812413 19.552925 18.458399
vn 0.717179 0.534141 0.447603
v 1.671926 23.229492 13.159720
vn 0.927787 -0.299066 -0.223093
v 2.117056 20.273485 13.219618
vn 0.056077 -0.730395 -0.680719
v -0.734569 17.436077 15.399193
vn 0.300088 0.871969 -0.175551
v -2.666265 14.475815 10.866799
vn 0.023747 0.999622 -0.013876
v -2.921881 16.456455 8.073692
vn -0.356698 0.790516 -0.041685
v 0.635426 15.478202 18.005424
vn -0.107778 0.673033 -0.116989
v -2.111489 15.280639 17.054676
vn -0.136999 0.616209 -0.266762
v -3.737760 14.951080 10.332674
vn 0.206375 0.970887 -0.121606
v 3.322593 16.446590 7.304072
vn 0.777248 0.313497 -0.545532
v -2.471405 14.088913 0.815395
vn -0.810127 -0.327736 -0.486090
v -5.562682 12.930456 0.377974
vn -0.821205 0.544925 -0.046524
v -3.284883 14.620795 14.607943
vn -0.791984 0.601748 0.103249
v -1.984568 15.498376 20.944553
vn 0.783250 0.517311 0.344832
v 1.836094 15.486742 21.590801
vn 0.327508 0.861801 -0.261923
v 0.394532 12.905095 14.619777
vn 0.078587 0.979284 -0.186619
v 3.684715 14.704869 15.082816
vn 0.261531 0.050826 -0.698890
v 3.811442 12.462567 6.625226
vn -0.343792 0.218850 -0.913188
v 2.918857 13.695521 0.385588
vn 0.673099 0.633867 0.380986
v 4.137825 13.966405 20.337931
vn -0.442553 0.512510 0.617285
v -2.416224 14.091831 22.290840
vn -0.093242 0.607884 0.788532
v -0.231490 15.219782 22.992887
vn -0.850426 0.488101 -0.196297
v -5.186640 14.121692 8.197183
vn -0.791863 0.417137 0.446037
v -4.519978 12.775258 21.350918
vn 0.576429 0.744317 -0.337227
v -2.017530 13.569123 13.429931
vn 0.211093 -0.820316 -0.531528
v 1.005465 -16.818275 16.731279
vn -0.632629 -0.722852 -0.277967
v -3.253996 -19.091051 21.919184
vn -0.609175 -0.409518 0.679117
v -2.678415 -17.313961 26.309090
vn 0.694931 -0.379945 0.610502
v 3.289420 -16.824661 25.855400
vn 0.220838 -0.965245 -0.139759
v 0.600271 -20.754087 20.444260
vn 0.951754 -0.266159 0.152724
v 5.065919 -13.844204 20.776806
vn -0.323248 -0.711763 -0.495657
v -3.250480 -15.875300 16.717134
vn -0.013867 -0.700674 -0.713347
v -3.360490 -12.915717 11.334611
vn -0.770602 -0.385583 0.328004
v -4.883824 -15.493173 21.865292
vn -0.932028 -0.361649 -0.023109
v -5.885029 -12.923804 16.323393
vn 0.006539 -0.826590 -0.562766
v 3.393102 -13.000362 11.427835
vn 0.889014 -0.432569 -0.150127
v 6.039698 -12.552542 14.117259
vn -0.791770 -0.007626 0.610772
v -4.298534 -8.141302 23.261885
vn -0.165285 -0.165052 0.818117
v -0.797767 -12.738628 26.854614
vn 0.278605 0.079413 0.957117
v 2.029813 -7.452879 25.476742
vn -0.334911 -0.210380 -0.918463
v 1.224729 -9.843386 10.193153
vn 0.810776 -0.356406 -0.464346
v 5.530503 -8.921443 3.058033
vn 0.849895 -0.394487 -0.307236
v 6.069242 -10.866182 8.461742
vn -0.938416 -0.271331 -0.148101
v -6.278215 -11.071213 10.074238
vn -0.944804 -0.181013 -0.273092
v -5.809270 -9.001584 4.004512
vn 0.572997 -0.664965 -0.479057
v -2.329135 -9.759213 2.197139
vn -0.762568 0.117205 -0.636201
v 2.646052 -8.460443 1.036820
vn -0.997336 0.042255 0.059460
v -6.189250 -8.381281 15.512006
vn 0.431626 0.858399 -0.277220
v -3.264463 -7.189323 4.025708
vn 0.790129 0.331984 -0.515250
v 5.248795 -6.730574 10.729130
vn -0.722846 0.312243 -0.616439
v -4.658601 -6.327210 10.241246
vn -0.214833 0.327754 -0.920013
v -5.191853 -9.217847 0.373027
vn 0.984938 -0.006267 0.172796
v 5.636560 -3.989164 19.186104
vn 0.659849 0.017244 0.751201
v 3.209825 -3.041349 24.440071
vn 0.805801 -0.124458 0.451962
v 4.557483 -8.506321 22.847837
vn 0.469227 0.048328 0.854159
v 2.575879 -5.256321 24.836885
vn -0.014344 -0.105388 -0.994328
v -0.850778 -2.609397 8.446948
vn -0.211339 -0.008952 0.977372
v -0.860575 -2.832669 25.841797
vn 0.224255 0.004146 0.864286
v 1.350114 -2.933314 25.657162
vn -0.897571 -0.018472 0.440482
v -5.051637 1.084803 22.226894
vn -0.994195 -0.021046 -0.021985
v -6.431103 -1.842395 15.333251
vn -0.991054 -0.084346 -0.103430
v -6.448240 4.700286 15.158229
vn -0.856950 0.113948 -0.359934
v -5.888216 -0.750193 12.531976
vn 0.256099 -0.010803 -0.966590
v 3.750303 3.849341 9.437220
vn -0.364786 -0.007272 -0.931063
v -3.831108 3.749616 9.488017
vn 0.994683 -0.043583 -0.093306
v 6.500645 5.443697 15.082940
vn 0.892406 0.144201 -0.304278
v 6.036278 -0.652309 12.893035
vn -0.587762 0.142520 0.796382
v -3.391598 8.097349 24.276188
vn 0.864646 0.176478 0.470364
v 4.737671 9.906609 22.595507
vn 0.762247 0.096861 0.610783
v 4.086063 3.446462 23.609255
vn 0.924792 0.085106 0.321580
v 5.487179 2.997565 21.014809
vn 0.353059 0.287148 0.890447
v 1.616840 10.918736 24.415600
vn 0.506454 0.152196 0.820824
v 2.680704 4.009833 24.844984
vn 0.070860 0.139098 0.933909
v 0.429886 4.129002 25.665956
vn 0.425548 0.186705 -0.885466
v -1.291466 6.283311 10.080720
vn -0.451017 0.161783 -0.877730
v 1.198412 6.200900 10.113546
vn -0.954546 0.066377 0.290579
v -6.033412 9.400324 19.466032
vn -0.596428 -0.213980 -0.773619
v -5.465370 8.284986 8.519149
vn -0.085440 -0.013637 -0.829543
v -3.655930 7.205472 8.057791
vn 0.866854 -0.117197 -0.484592
v 5.225532 11.887778 7.900488
vn -0.961745 0.272380 0.029255
v -6.651897 11.298537 14.079240
vn -0.884356 0.035872 -0.465433
v 1.547979 13.418959 6.638356
vn -0.008751 -0.040663 -0.475012
v 3.702744 12.558319 6.492653
vn -0.179898 0.492569 -0.851477
v -0.239606 11.372924 13.801808
vn 0.867380 0.488448 0.095237
v 5.930855 13.073904 15.192711
vn 0.761155 -0.405109 -0.506488
v -1.566412 13.386444 6.623093
f 3//3 2//2 1//1
f 43//43 42//42 41//41
f 40//40 39//39 43//43
f 43//43 39//39 44//44
f 44//44 42//42 43//43
f 39//39 40//40 39//39
f 45//45 39//39 40//40
f 40//40 40//40 45//45
f 39//39 45//45 46//46
f 41//41 47//47 41//41
f 40//40 41//41 47//47
f 47//47 48//48 40//40
f 41//41 40//40 40//40
f 48//48 46//46 48//48
f 45//45 48//48 46//46
f 46//46 46//46 45//45
f 48//48 45//45 40//40
f 49//49 39//39 46//46
f 50//50 44//44 39//39
f 50//50 39//39 49//49
f 51//51 48//48 51//51
f 47//47 51//51 48//48
f 48//48 48//48 47//47
f 51//51 47//47 41//41
f 41//41 42//42 52//52
f 53//53 52//52 42//42
f 42//42 42//42 53//53
f 52//52 53//53 53//53
f 53//53 51//51 52//52
f 41//41 52//52 51//51
f 51//51 51//51 41//41
f 52//52 41//41 41//41
f 53//53 42//42 44//44
f 54//54 49//49 46//46
f 55//55 56//56 55//55
f 49//49 55//55 56//56
f 56//56 50//50 49//49
f 55//55 49//49 49//49
f 48//48 57//57 48//48
f 46//46 48//48 57//57
f 57//57 58//58 46//46
f 48//48 46//46 46//46
f 59//59 46//46 58//58
f 60//60 55//55 49//49
f 54//54 60//60 49//49
f 48//48 61//61 57//57
f 58//58 57//57 61//61
f 61//61 61//61 58//58
f 57//57 58//58 58//58
f 48//48 51//51 61//61
f 46//46 59//59 62//62
f 63//63 50//50 63//63
f 56//56 63//63 50//50
f 50//50 50//50 56//56
f 63//63 56//56 55//55
f 62//62 64//64 46//46
f 58//58 65//65 59//59
f 66//66 44//44 50//50
f 66//66 67//67 66//66
f 68//68 66//66 67//67
f 67//67 67//67 68//68
f 66//66 68//68 44//44
f 44//44 68//68 44//44
f 69//69 44//44 68//68
f 68//68 67//67 69//69
f 44//44 69//69 53//53
f 50//50 63//63 66//66
f 60//60 54//54 63//63
f 62//62 59//59 65//65
f 62//62 65//65 58//58
f 55//55 60//60 63//63
f 70//70 54//54 46//46
f 46//46 64//64 70//70
f 58//58 64//64 62//62
f 58//58 61//61 64//64
f 70//70 63//63 54//54
f 51//51 53//53 71//71
f 71//71 53//53 72//72
f 69//69 72//72 53//53
f 53//53 53//53 69//69
f 72//72 69//69 67//67
f 73//73 61//61 51//51
f 71//71 73//73 51//51
f 61//61 74//74 61//61
f 76//76 61//61 74//74
f 74//74 75//75 76//76
f 61//61 76//76 64//64
f 75//75 74//74 75//75
f 73//73 75//75 74//74
f 74//74 61//61 73//73
f 75//75 73//73 73//73
f 63//63 70//70 77//77
f 78//78 70//70 64//64
f 78//78 64//64 78//78
f 76//76 78//78 64//64
f 64//64 64//64 76//76
f 78//78 76//76 75//75
f 77//77 79//79 77//77
f 80//80 77//77 79//79
f 79//79 79//79 80//80
f 77//77 80//80 63//63
f 66//66 63//63 66//66
f 80//80 66//66 63//63
f 63//63 63//63 80//80
f 66//66 80//80 79//79
f 70//70 78//78 77//77
f 71//71 81//81 73//73
f 82//82 83//83 84//84
f 66//66 84//84 83//83
f 83//83 67//67 66//66
f 84//84 66//66 66//66
f 79//79 82//82 79//79
f 84//84 79//79 82//82
f 82//82 82//82 84//84
f 79//79 84//84 66//66
f 85//85 86//86 85//85
f 83//83 85//85 86//86
f 86//86 67//67 83//83
f 85//85 83//83 82//82
f 67//67 86//86 72//72
f 87//87 72//72 86//86
f 86//86 85//85 87//87
f 72//72 87//87 71//71
f 85//85 81//81 87//87
f 71//71 87//87 81//81
f 81//81 81//81 71//71
f 87//87 71//71 71//71
f 78//78 88//88 77//77
f 88//88 89//89 77//77
f 90//90 73//73 81//81
f 90//90 75//75 73//73
f 78//78 75//75 91//91
f 88//88 78//78 92//92
f 91//91 92//92 78//78
f 78//78 78//78 91//91
f 92//92 91//91 91//91
f 93//93 79//79 77//77
f 94//94 91//91 75//75
f 75//75 90//90 94//94
f 95//95 77//77 89//89
f 77//77 95//95 77//77
f 96//96 77//77 95//95
f 95//95 95//95 96//96
f 77//77 96//96 93//93
f 89//89 88//88 97//97
f 82//82 79//79 98//98
f 79//79 93//93 98//98
f 91//91 99//99 92//92
f 88//88 92//92 99//99
f 99//99 99//99 88//88
f 92//92 88//88 88//88
f 89//89 97//97 95//95
f 97//97 88//88 38//38
f 88//88 99//99 38//38
f 90//90 81//81 37//37
f 90//90 37//37 94//94
f 91//91 36//36 99//99
f 91//91 94//94 36//36
f 35//35 81//81 85//85
f 37//37 81//81 34//34
f 35//35 34//34 81//81
f 81//81 81//81 35//35
f 34//34 35//35 35//35
f 33//33 82//82 98//98
f 33//33 85//85 82//82
f 32//32 31//31 32//32
f 96//96 32//32 31//31
f 31//31 93//93 96//96
f 32//32 96//96 95//95
f 30//30 95//95 97//97
f 30//30 97//97 29//29
f 38//38 29//29 97//97
f 97//97 97//97 38//38
f 29//29 38//38 38//38
f 33//33 28//28 85//85
f 85//85 28//28 35//35
f 27//27 94//94 37//37
f 36//36 94//94 26//26
f 27//27 26//26 94//94
f 94//94 94//94 27//27
f 26//26 27//27 27//27
f 25//25 99//99 36//36
f 99//99 25//25 24//24
f 98//98 93//93 23//23
f 93//93 31//31 93//93
f 23//23 93//93 31//31
f 31//31 32//32 23//23
f 93//93 23//23 23//23
f 33//33 98//98 30//30
f 35//35 27//27 34//34
f 37//37 34//34 27//27
f 27//27 27//27 37//37
f 34//34 37//37 37//37
f 33//33 30//30 28//28
f 23//23 30//30 98//98
f 38//38 22//22 21//21
f 26//26 21//21 22//22
f 22//22 36//36 26//26
f 21//21 26//26 27//27
f 38//38 21//21 29//29
f 20//20 29//29 21//21
f 21//21 27//27 20//20
f 29//29 20//20 30//30
f 30//30 23//23 95//95
f 95//95 23//23 32//32
f 19//19 99//99 24//24
f 99//99 19//19 99//99
f 18//18 99//99 19//19
f 19//19 19//19 18//18
f 99//99 18//18 38//38
f 19//19 25//25 36//36
f 25//25 19//19 24//24
f 38//38 18//18 22//22
f 36//36 22//22 18//18
f 18//18 19//19 36//36
f 22//22 36//36 36//36
f 30//30 20//20 30//30
f 17//17 30//30 20//20
f 20//20 27//27 17//17
f 30//30 17//17 17//17
f 30//30 17//17 28//28
f 16//16 28//28 17//17
f 15//15 14//14 15//15
f 28//28 15//15 14//14
f 14//14 35//35 28//28
f 15//15 28//28 28//28
f 16//16 15//15 28//28
f 35//35 13//13 35//35
f 11//11 35//35 13//13
f 13//13 12//12 11//11
f 35//35 11//11 27//27
f 15//15 10//10 14//14
f 13//13 14//14 10//10
f 10//10 12//12 13//13
f 14//14 13//13 35//35
f 17//17 27//27 9//9
f 8//8 9//9 27//27
f 27//27 27//27 8//8
f 9//9 8//8 7//7
f 7//7 8//8 7//7
f 11//11 7//7 8//8
f 8//8 27//27 11//11
f 7//7 11//11 12//12
f 17//17 6//6 17//17
f 16//16 17//17 6//6
f 6//6 5//5 16//16
f 17//17 16//16 16//16
f 17//17 9//9 6//6
f 5//5 6//6 9//9
f 9//9 7//7 5//5
f 6//6 5//5 5//5
f 15//15 16//16 5//5
f 4//4 12//12 4//4
f 10//10 4//4 12//12
f 12//12 12//12 10//10
f 4//4 10//10 15//15
f 15//15 5//5 4//4
f 4//4 7//7 12//12
f 4//4 5//5 7//7
