vn 0.220838 -0.965245 -0.139759
v 0.600271 -20.754087 20.444260
vn 0.457885 -0.672595 0.235371
v 2.566684 -19.498802 23.550106
vn -0.194169 -0.687381 0.269679
v -1.508836 -19.984877 23.961063
vn 0.694931 -0.379945 0.610502
v 3.289420 -16.824661 25.855400
vn 0.042878 -0.394732 0.644810
v 0.299143 -17.548235 26.865492
vn -0.609175 -0.409518 0.679117
v -2.678415 -17.313961 26.309090
vn -0.632629 -0.722852 -0.277967
v -3.253996 -19.091051 21.919184
vn -0.205895 -0.844049 -0.208863
v -1.426071 -20.877783 20.974409
vn -0.620902 -0.566185 0.200575
v -3.363277 -18.462275 24.580463
vn 0.220838 -0.965245 -0.139759
v 0.600271 -20.754087 20.444260
vn -0.194169 -0.687381 0.269679
v -1.508836 -19.984877 23.961063
vn -0.609175 -0.409518 0.679117
v -2.678415 -17.313961 26.309090
vn 0.278605 0.079413 0.957117
v 2.029813 -7.452879 25.476742
vn 0.486768 -0.150266 0.783809
v 3.007569 -12.329254 25.970997
vn 0.615179 -0.093373 0.554920
v 4.255874 -10.765944 23.707775
vn 0.694931 -0.379945 0.610502
v 3.289420 -16.824661 25.855400
vn 0.823342 -0.323052 0.381613
v 4.736519 -15.598816 23.696400
vn 0.951754 -0.266159 0.152724
v 5.065919 -13.844204 20.776806
vn 0.215965 -0.892780 -0.335643
v 0.655058 -18.176441 18.822514
vn 0.586296 -0.615702 0.006482
v 3.547032 -18.123812 20.603899
vn 0.211093 -0.820316 -0.531528
v 1.005465 -16.818275 16.731279
vn 0.581423 -0.543237 -0.189402
v 3.687580 -15.988585 18.505836
vn 0.457885 -0.672595 0.235371
v 2.566684 -19.498802 23.550106
vn 0.042878 -0.394732 0.644810
v 0.299143 -17.548235 26.865492
vn -0.165285 -0.165052 0.818117
v -0.797767 -12.738628 26.854614
vn 0.889014 -0.432569 -0.150127
v 6.039698 -12.552542 14.117259
vn 0.920384 -0.349364 0.001298
v 5.552131 -13.199951 17.444111
vn 0.550053 -0.626442 -0.340827
v 3.919176 -15.170815 15.155218
vn 0.810776 -0.356406 -0.464346
v 5.530503 -8.921443 3.058033
vn 0.849895 -0.394487 -0.307236
v 6.069242 -10.866182 8.461742
vn 0.408657 -0.591498 -0.513556
v 4.870372 -11.226770 6.950393
vn 0.447776 -0.629579 -0.356447
v 5.158099 -13.182549 12.567552
vn 0.006539 -0.826590 -0.562766
v 3.393102 -13.000362 11.427835
vn 0.024104 -0.119600 -0.550274
v 4.561115 -9.190032 0.343299
vn 0.800452 -0.012211 -0.489798
v 5.963199 -7.952942 6.553538
vn -0.762568 0.117205 -0.636201
v 2.646052 -8.460443 1.036820
vn 0.013780 0.224595 -0.575726
v 4.111167 -6.937094 4.248999
vn 0.790129 0.331984 -0.515250
v 5.248795 -6.730574 10.729130
vn 0.108816 -0.823453 -0.547147
v 2.290543 -15.350368 13.790847
vn 0.256099 -0.010803 -0.966590
v 3.750303 3.849341 9.437220
vn 0.625391 -0.027193 -0.529948
v 5.728681 4.620231 11.883640
vn 0.523114 0.160591 -0.740920
v 4.384357 -1.475217 10.251477
vn 0.994683 -0.043583 -0.093306
v 6.500645 5.443697 15.082940
vn 0.892406 0.144201 -0.304278
v 6.036278 -0.652309 12.893035
vn -0.014344 -0.105388 -0.994328
v -0.850778 -2.609397 8.446948
vn 0.387892 0.113298 -0.754789
v 2.467149 -4.607450 8.906822
vn -0.174628 -0.157884 -0.956396
v 0.142542 -6.278737 8.956088
vn 0.227609 0.060802 -0.716857
v 5.354259 -7.724262 3.744165
vn -0.334911 -0.210380 -0.918463
v 1.224729 -9.843386 10.193153
vn -0.013867 -0.700674 -0.713347
v -3.360490 -12.915717 11.334611
vn 0.673099 0.633867 0.380986
v 4.137825 13.966405 20.337931
vn 0.078587 0.979284 -0.186619
v 3.684715 14.704869 15.082816
vn 0.783250 0.517311 0.344832
v 1.836094 15.486742 21.590801
vn 0.353059 0.287148 0.890447
v 1.616840 10.918736 24.415600
vn -0.093242 0.607884 0.788532
v -0.231490 15.219782 22.992887
vn 0.237511 0.966026 0.101899
v -0.233415 30.008614 6.179784
vn -0.116668 0.816521 0.339650
v -0.519800 28.040375 9.386065
vn 0.477345 0.750083 0.274751
v 0.946843 27.317518 9.780734
vn -0.470847 0.667017 0.577400
v -0.998496 24.617788 12.306944
vn 0.123166 0.600579 0.512501
v 0.378630 24.253193 13.014901
vn 0.717179 0.534141 0.447603
v 1.671926 23.229492 13.159720
vn 0.822483 0.117537 0.112255
v 2.271969 21.764875 13.208329
vn 0.725999 0.149191 -0.094184
v 2.166333 24.758524 9.806650
vn 0.927787 -0.299066 -0.223093
v 2.117056 20.273485 13.219618
vn 0.831303 -0.267413 -0.429532
v 1.991889 23.153994 9.879237
vn 0.734819 -0.235760 -0.635970
v 1.461845 26.164660 6.781712
vn 0.864646 0.176478 0.470364
v 4.737671 9.906609 22.595507
vn 0.894719 0.130792 0.395972
v 5.271027 6.486486 21.894989
vn 0.762247 0.096861 0.610783
v 4.086063 3.446462 23.609255
vn 0.843520 0.090983 0.466181
v 4.885651 3.234937 22.395781
vn 0.924792 0.085106 0.321580
v 5.487179 2.997565 21.014809
vn 0.659849 0.017244 0.751201
v 3.209825 -3.041349 24.440071
vn 0.792320 0.051175 0.536391
v 4.638444 -0.009016 22.993925
vn 0.873592 0.045297 0.391789
v 5.317330 -0.245123 21.614309
vn 0.954865 0.039420 0.247188
v 5.784422 -0.491684 20.149187
vn 0.822393 0.005488 0.461999
v 4.765525 -3.511400 22.052004
vn 0.984938 -0.006267 0.172796
v 5.636560 -3.989164 19.186104
vn 0.867380 0.488448 0.095237
v 5.930855 13.073904 15.192711
vn 0.867117 0.185625 -0.194677
v 6.163349 12.508097 11.321357
vn 0.536877 0.729668 -0.013184
v 4.582797 14.532303 11.277869
vn 0.866854 -0.117197 -0.484592
v 5.225532 11.887778 7.900488
vn 0.206375 0.970887 -0.121606
v 3.322593 16.446590 7.304072
vn 0.142481 0.975085 -0.154113
v 3.359212 14.676087 11.329223
vn -0.402884 0.507578 -0.326026
v 2.384198 14.366291 10.669963
vn -0.884356 0.035872 -0.465433
v 1.547979 13.418959 6.638356
vn -0.314128 0.012535 -0.716011
v 2.441169 8.642509 7.720366
vn 0.561477 -0.064000 -0.725591
v 4.985689 7.803028 8.329532
vn 0.930768 -0.080390 -0.288949
v 6.661253 8.584167 11.179618
vn -0.378015 -0.354692 -0.599484
v 2.996358 -10.839966 6.135092
vn -0.343792 0.218850 -0.913188
v 2.918857 13.695521 0.385588
vn 0.506454 0.152196 0.820824
v 2.680704 4.009833 24.844984
vn 0.067332 0.124445 -0.433669
v 1.203878 15.266994 16.871899
vn 0.056077 -0.730395 -0.680719
v -0.734569 17.436077 15.399193
vn 0.419663 -0.106542 -0.167943
v 0.600679 16.109459 18.163164
vn -0.211339 -0.008952 0.977372
v -0.860575 -2.832669 25.841797
vn -0.548740 -0.046588 -0.777332
v 2.222574 -9.161104 5.939874
vn 0.855518 0.109122 0.060869
v 2.071638 17.841219 17.376637
vn 0.491932 -0.514731 -0.451906
v 0.893308 18.407230 13.902606
vn 0.750214 0.525726 0.396218
v 1.856463 19.430805 17.431316
vn 0.311968 0.571012 0.618068
v 0.812413 19.552925 18.458399
vn 0.120878 -0.058095 -0.980459
v 1.472573 0.590538 8.574351
vn 0.887533 0.162859 -0.171227
v 6.304196 -5.216178 14.819335
vn 0.989810 -0.024925 0.039745
v 6.322551 0.719125 17.132164
vn 0.968346 -0.136213 0.162760
v 5.601347 -8.966661 20.022682
vn 0.936976 -0.219418 0.011335
v 6.150819 -8.373506 16.634363
vn 0.839571 -0.050292 -0.332689
v 6.516401 -9.772746 12.119667
vn 0.929665 0.066448 0.188529
v 6.185077 7.718084 18.960373
vn 0.959737 0.020761 0.114137
v 6.206331 4.212057 18.031334
vn 0.927228 0.075777 0.255055
v 5.857919 5.360482 19.999769
vn 0.957301 0.030090 0.180663
v 6.022068 1.860509 19.091616
vn 0.866013 0.332463 0.282801
v 5.755732 11.644767 19.040560
vn 0.931032 0.222433 0.000966
v 6.843487 9.401670 15.136093
vn -0.451017 0.161783 -0.877730
v 1.198412 6.200900 10.113546
vn -0.179898 0.492569 -0.851477
v -0.239606 11.372924 13.801808
vn -0.667687 0.098828 -0.671581
v 1.334908 9.795635 8.426528
vn -0.532127 0.264221 -0.658455
v 1.455692 11.983661 11.234175
vn 0.576429 0.744317 -0.337227
v -2.017530 13.569123 13.429931
vn 0.395448 -0.483077 -0.658345
v 0.739443 21.152084 10.296912
vn -0.356698 0.790516 -0.041685
v 0.635426 15.478202 18.005424
vn -0.791984 0.601748 0.103249
v -1.984568 15.498376 20.944553
vn -0.367953 -0.064323 -0.288735
v -1.069020 16.313383 18.199511
vn -0.282045 0.637450 0.682966
v -0.661597 20.088720 17.854311
vn 0.805801 -0.124458 0.451962
v 4.557483 -8.506321 22.847837
vn 0.070860 0.139098 0.933909
v 0.429886 4.129002 25.665956
vn -0.932028 -0.361649 -0.023109
v -5.885029 -12.923804 16.323393
vn -0.861899 -0.184637 0.293831
v -5.608275 -10.637317 19.981092
vn -0.964682 -0.159697 0.018175
v -6.348768 -10.692780 15.925797
vn -0.791770 -0.007626 0.610772
v -4.298534 -8.141302 23.261885
vn -0.894553 0.017315 0.335116
v -5.648423 -8.253038 19.532700
vn -0.997336 0.042255 0.059460
v -6.189250 -8.381281 15.512006
vn -0.700472 -0.208572 0.644945
v -3.952678 -13.016661 25.291052
vn -0.770602 -0.385583 0.328004
v -4.883824 -15.493173 21.865292
vn -0.782328 -0.542250 -0.150538
v -4.148109 -15.714341 19.202927
vn -0.210768 -0.771584 -0.404747
v -1.100321 -18.294815 19.119619
vn -0.944804 -0.181013 -0.273092
v -5.809270 -9.001584 4.004512
vn -0.971070 -0.069379 -0.106816
v -6.448601 -8.737176 9.688506
vn -0.860091 0.177249 -0.278490
v -5.784664 -7.266978 12.729550
vn -0.722846 0.312243 -0.616439
v -4.658601 -6.327210 10.241246
vn -0.472947 -0.531161 -0.368228
v -5.193432 -13.555098 13.390409
vn -0.323248 -0.711763 -0.495657
v -3.250480 -15.875300 16.717134
vn 0.431626 0.858399 -0.277220
v -3.264463 -7.189323 4.025708
vn -0.364786 -0.007272 -0.931063
v -3.831108 3.749616 9.488017
vn -0.543816 0.152486 -0.773751
v -4.150818 -1.308512 10.023449
vn -0.677920 -0.045809 -0.517246
v -5.664177 4.189961 11.905937
vn -0.856950 0.113948 -0.359934
v -5.888216 -0.750193 12.531976
vn -0.991054 -0.084346 -0.103430
v -6.448240 4.700286 15.158229
vn -0.994195 -0.021046 -0.021985
v -6.431103 -1.842395 15.333251
vn -0.014106 -0.403031 -0.853837
v -2.109836 -7.833041 9.615893
vn 0.425548 0.186705 -0.885466
v -1.291466 6.283311 10.080720
vn -0.054344 -0.009038 -0.948826
v -0.075440 3.798082 9.302147
vn 0.572997 -0.664965 -0.479057
v -2.329135 -9.759213 2.197139
vn -0.214833 0.327754 -0.920013
v -5.191853 -9.217847 0.373027
vn -0.117351 0.214834 0.843414
v -0.962472 9.644724 24.882690
vn -0.587762 0.142520 0.796382
v -3.391598 8.097349 24.276188
vn -0.399551 0.066784 0.886877
v -2.202390 2.646836 25.208368
vn -0.810127 -0.327736 -0.486090
v -5.562682 12.930456 0.377974
vn -0.393190 0.335943 -0.249983
v -4.184223 15.432622 4.240338
vn 0.023747 0.999622 -0.013876
v -2.921881 16.456455 8.073692
vn 0.400497 0.656559 -0.279704
v -2.454824 15.696405 4.275737
vn 0.777248 0.313497 -0.545532
v -2.471405 14.088913 0.815395
vn -0.954546 0.066377 0.290579
v -6.033412 9.400324 19.466032
vn -0.926059 0.023952 0.365531
v -5.587017 5.240767 20.870117
vn -0.897571 -0.018472 0.440482
v -5.051637 1.084803 22.226894
vn -0.742667 0.062024 0.618432
v -4.297467 4.601597 23.328453
vn -0.596428 -0.213980 -0.773619
v -5.465370 8.284986 8.519149
vn -0.850426 0.488101 -0.196297
v -5.186640 14.121692 8.197183
vn 0.761155 -0.405109 -0.506488
v -1.566412 13.386444 6.623093
vn -0.944313 -0.051409 0.168526
v -6.066531 2.877018 18.764816
vn 0.279565 -0.682819 -0.596202
v -2.980094 -11.097528 6.962867
vn -0.479336 -0.440843 -0.493220
v -5.064276 -11.273636 7.304235
vn -0.107778 0.673033 -0.116989
v -2.111489 15.280639 17.054676
vn -0.821205 0.544925 -0.046524
v -3.284883 14.620795 14.607943
vn -0.830277 0.080183 -0.341193
v -4.819048 13.711206 4.605999
vn -0.554455 -0.013712 0.708927
v -3.342618 -0.883512 24.532402
vn 0.500988 0.465511 -0.611346
v -1.288469 10.314443 11.393089
vn -0.876864 0.437064 0.066252
v -5.039310 13.777638 17.570524
vn -0.961745 0.272380 0.029255
v -6.651897 11.298537 14.079240
vn -0.876804 0.344759 0.237646
v -5.881426 12.156949 17.803625
vn -0.791863 0.417137 0.446037
v -4.519978 12.775258 21.350918
vn 0.593351 -0.109202 -0.695977
v -1.362968 9.776300 8.342215
vn -0.938416 -0.271331 -0.148101
v -6.278215 -11.071213 10.074238
vn 0.208879 0.078862 -0.495284
v -2.325157 -9.567527 5.459506
vn -0.368357 -0.194215 -0.664893
v -5.946136 -10.544038 7.390104
vn -0.340502 0.375202 0.792457
v -1.955647 11.855718 24.013317
vn -0.844671 -0.013049 0.525627
v -4.491822 -3.525727 22.622431
vn -0.631416 0.634383 0.340325
v -1.711778 20.254774 16.703432
vn -0.854834 -0.086416 -0.511655
v -1.423493 26.793673 6.406399
vn -0.839122 0.085625 -0.357929
v -2.156541 23.977238 9.743128
vn -0.662841 0.290301 0.032872
v -2.039846 25.916382 9.214592
vn -0.823409 0.257666 -0.204203
v -2.315678 21.265276 13.462701
vn -0.743125 0.273983 -0.085665
v -2.195410 23.584791 11.306755
vn -0.807697 0.429707 -0.050477
v -2.202490 18.457598 17.240923
vn -0.727412 0.446024 0.068061
v -2.129244 20.841713 15.106228
vn -0.647128 0.462342 0.186598
v -1.830575 23.111378 12.996156
vn -0.399378 -0.408406 -0.596187
v -1.415632 21.713474 10.344823
vn -0.383666 -0.236365 -0.442461
v -1.556733 18.916563 13.990453
vn -0.595681 0.096671 -0.246469
v -2.120039 18.779436 15.566881
vn -0.611394 -0.075370 -0.400195
v -2.096356 21.445511 11.738376
vn -0.947454 0.011891 0.249971
v -5.735899 -3.648236 18.909813
vn -0.189565 -0.056330 -0.962695
v -2.364839 0.554765 8.771008
vn -0.368595 0.103428 -0.805384
v -2.891831 -4.432097 9.024414
vn 0.098613 -0.760495 -0.622437
v -1.068078 -15.490335 13.560972
vn -0.793741 -0.149163 -0.438524
v -6.124813 6.439346 11.651216
f 1//1 2//2 3//3
f 5//5 3//3 2//2
f 2//2 4//4 5//5
f 3//3 5//5 6//6
f 7//7 8//8 9//9
f 11//11 9//9 8//8
f 8//8 10//10 11//11
f 9//9 11//11 12//12
f 13//13 14//14 15//15
f 17//17 15//15 14//14
f 14//14 16//16 17//17
f 15//15 17//17 18//18
f 10//10 19//19 20//20
f 22//22 20//20 19//19
f 19//19 21//21 22//22
f 20//20 22//22 18//18
f 18//18 17//17 20//20
f 23//23 20//20 17//17
f 17//17 16//16 23//23
f 20//20 23//23 10//10
f 12//12 24//24 25//25
f 14//14 25//25 24//24
f 24//24 16//16 14//14
f 25//25 14//14 13//13
f 26//26 27//27 28//28
f 22//22 28//28 27//27
f 27//27 18//18 22//22
f 28//28 22//22 21//21
f 29//29 30//30 31//31
f 32//32 31//31 30//30
f 30//30 26//26 32//32
f 31//31 32//32 33//33
f 29//29 34//34 35//35
f 37//37 35//35 34//34
f 34//34 36//36 37//37
f 35//35 37//37 38//38
f 26//26 28//28 32//32
f 39//39 32//32 28//28
f 28//28 21//21 39//39
f 32//32 39//39 33//33
f 40//40 41//41 42//42
f 44//44 42//42 41//41
f 41//41 43//43 44//44
f 42//42 44//44 38//38
f 45//45 46//46 47//47
f 48//48 47//47 46//46
f 46//46 38//38 48//48
f 47//47 48//48 49//49
f 49//49 33//33 50//50
f 51//51 52//52 53//53
f 54//54 53//53 55//55
f 51//51 53//53 54//54
f 56//56 57//57 58//58
f 60//60 58//58 57//57
f 57//57 59//59 60//60
f 58//58 60//60 61//61
f 61//61 62//62 63//63
f 65//65 63//63 62//62
f 62//62 64//64 65//65
f 63//63 65//65 66//66
f 67//67 67//67 68//68
f 77//77 75//75 74//74
f 76//76 74//74 73//73
f 72//72 73//73 72//72
f 67//67 69//69 70//70
f 68//68 70//70 71//71
f 74//74 71//71 70//70
f 73//73 70//70 69//69
f 69//69 72//72 73//73
f 70//70 73//73 74//74
f 71//71 74//74 75//75
f 70//70 68//68 67//67
f 72//72 72//72 72//72
f 73//73 72//72 76//76
f 74//74 76//76 77//77
f 75//75 77//77 77//77
f 78//78 79//79 80//80
f 82//82 80//80 79//79
f 79//79 81//81 82//82
f 80//80 82//82 82//82
f 52//52 83//83 84//84
f 85//85 84//84 83//83
f 83//83 82//82 85//85
f 84//84 85//85 85//85
f 40//40 86//86 87//87
f 81//81 87//87 86//86
f 86//86 85//85 81//81
f 87//87 81//81 81//81
f 81//81 88//88 87//87
f 41//41 87//87 88//88
f 88//88 43//43 41//41
f 87//87 41//41 40//40
f 36//36 34//34 89//89
f 31//31 89//89 34//34
f 34//34 29//29 31//31
f 89//89 31//31 33//33
f 90//90 81//81 85//85
f 85//85 82//82 90//90
f 54//54 91//91 54//54
f 69//69 54//54 91//91
f 91//91 72//72 69//69
f 54//54 69//69 67//67
f 52//52 92//92 52//52
f 94//94 52//52 92//92
f 92//92 93//93 94//94
f 52//52 94//94 53//53
f 95//95 13//13 72//72
f 36//36 96//96 37//37
f 48//48 37//37 96//96
f 96//96 49//49 48//48
f 37//37 48//48 38//38
f 61//61 63//63 58//58
f 56//56 58//58 63//63
f 63//63 66//66 56//56
f 58//58 56//56 56//56
f 64//64 97//97 98//98
f 94//94 98//98 97//97
f 97//97 53//53 94//94
f 98//98 94//94 93//93
f 64//64 62//62 97//97
f 99//99 97//97 62//62
f 62//62 61//61 99//99
f 97//97 99//99 53//53
f 61//61 100//100 99//99
f 53//53 99//99 100//100
f 100//100 55//55 53//53
f 99//99 53//53 53//53
f 51//51 78//78 52//52
f 38//38 46//46 42//42
f 101//101 42//42 46//46
f 46//46 45//45 101//101
f 42//42 101//101 40//40
f 77//77 102//102 103//103
f 44//44 103//103 102//102
f 102//102 38//38 44//44
f 103//103 44//44 43//43
f 77//77 104//104 105//105
f 27//27 105//105 104//104
f 104//104 18//18 27//27
f 105//105 27//27 26//26
f 26//26 106//106 105//105
f 102//102 105//105 106//106
f 106//106 38//38 102//102
f 105//105 102//102 77//77
f 38//38 106//106 35//35
f 30//30 35//35 106//106
f 106//106 26//26 30//30
f 35//35 30//30 29//29
f 49//49 96//96 49//49
f 89//89 49//49 96//96
f 96//96 36//36 89//89
f 49//49 89//89 33//33
f 43//43 43//43 103//103
f 75//75 103//103 110//110
f 71//71 110//110 109//109
f 68//68 109//109 67//67
f 43//43 107//107 108//108
f 103//103 108//108 103//103
f 110//110 103//103 108//108
f 109//109 108//108 107//107
f 107//107 67//67 109//109
f 108//108 109//109 110//110
f 103//103 110//110 103//103
f 108//108 103//103 43//43
f 67//67 67//67 68//68
f 109//109 68//68 71//71
f 110//110 71//71 75//75
f 103//103 75//75 77//77
f 51//51 67//67 51//51
f 111//111 51//51 67//67
f 67//67 67//67 111//111
f 51//51 111//111 78//78
f 67//67 107//107 111//111
f 112//112 111//111 107//107
f 107//107 43//43 112//112
f 111//111 112//112 78//78
f 43//43 88//88 112//112
f 79//79 112//112 88//88
f 88//88 81//81 79//79
f 112//112 79//79 78//78
f 113//113 114//114 115//115
f 116//116 115//115 114//114
f 114//114 114//114 116//116
f 115//115 116//116 85//85
f 52//52 84//84 52//52
f 116//116 52//52 84//84
f 84//84 85//85 116//116
f 52//52 116//116 114//114
f 51//51 54//54 67//67
f 81//81 90//90 82//82
f 52//52 114//114 117//117
f 82//82 83//83 80//80
f 78//78 80//80 83//83
f 83//83 52//52 78//78
f 80//80 78//78 78//78
f 85//85 86//86 115//115
f 113//113 115//115 86//86
f 86//86 40//40 113//113
f 115//115 113//113 113//113
f 93//93 118//118 98//98
f 65//65 98//98 118//118
f 118//118 66//66 65//65
f 98//98 65//65 64//64
f 52//52 119//119 92//92
f 121//121 92//92 119//119
f 119//119 120//120 121//121
f 92//92 121//121 93//93
f 61//61 60//60 100//100
f 122//122 100//100 60//60
f 60//60 59//59 122//122
f 100//100 122//122 55//55
f 77//77 76//76 104//104
f 123//123 104//104 76//76
f 76//76 72//72 123//123
f 104//104 123//123 18//18
f 18//18 123//123 15//15
f 13//13 15//15 123//123
f 123//123 72//72 13//13
f 15//15 13//13 13//13
f 72//72 91//91 72//72
f 124//124 72//72 91//91
f 91//91 54//54 124//124
f 72//72 124//124 95//95
f 125//125 126//126 127//127
f 129//129 127//127 126//126
f 126//126 128//128 129//129
f 127//127 129//129 130//130
f 128//128 126//126 131//131
f 132//132 131//131 126//126
f 126//126 125//125 132//132
f 131//131 132//132 12//12
f 12//12 132//132 9//9
f 133//133 9//9 132//132
f 132//132 125//125 133//133
f 9//9 133//133 7//7
f 13//13 128//128 25//25
f 131//131 25//25 128//128
f 128//128 128//128 131//131
f 25//25 131//131 12//12
f 128//128 13//13 95//95
f 7//7 134//134 8//8
f 19//19 8//8 134//134
f 134//134 21//21 19//19
f 8//8 19//19 10//10
f 135//135 136//136 135//135
f 137//137 135//135 136//136
f 136//136 130//130 137//137
f 135//135 137//137 138//138
f 125//125 139//139 133//133
f 140//140 133//133 139//139
f 139//139 50//50 140//140
f 133//133 140//140 7//7
f 135//135 138//138 141//141
f 142//142 143//143 144//144
f 145//145 144//144 143//143
f 143//143 138//138 145//145
f 144//144 145//145 146//146
f 130//130 147//147 137//137
f 145//145 137//137 147//147
f 147//147 146//146 145//145
f 137//137 145//145 138//138
f 45//45 47//47 148//148
f 50//50 148//148 47//47
f 47//47 49//49 50//50
f 148//148 50//50 50//50
f 142//142 149//149 150//150
f 40//40 150//150 149//149
f 149//149 149//149 40//40
f 150//150 40//40 40//40
f 149//149 113//113 40//40
f 141//141 151//151 152//152
f 141//141 152//152 135//135
f 54//54 153//153 124//124
f 155//155 124//124 153//153
f 153//153 154//154 155//155
f 124//124 155//155 95//95
f 156//156 157//157 156//156
f 159//159 156//156 157//157
f 157//157 158//158 159//159
f 156//156 159//159 160//160
f 161//161 162//162 161//161
f 164//164 161//161 162//162
f 162//162 163//163 164//164
f 161//161 164//164 154//154
f 165//165 166//166 167//167
f 161//161 146//146 162//162
f 168//168 162//162 146//146
f 146//146 146//146 168//168
f 162//162 168//168 163//163
f 151//151 169//169 151//151
f 170//170 151//151 169//169
f 169//169 50//50 170//170
f 151//151 170//170 135//135
f 135//135 152//152 151//151
f 117//117 166//166 171//171
f 172//172 171//171 166//166
f 166//166 166//166 172//172
f 171//171 172//172 120//120
f 156//156 167//167 173//173
f 166//166 173//173 167//167
f 167//167 167//167 166//166
f 173//173 166//166 166//166
f 158//158 167//167 159//159
f 160//160 159//159 167//167
f 167//167 167//167 160//160
f 159//159 160//160 160//160
f 95//95 155//155 174//174
f 164//164 174//174 155//155
f 155//155 154//154 164//164
f 174//174 164//164 163//163
f 114//114 149//149 114//114
f 175//175 114//114 149//149
f 149//149 149//149 175//175
f 114//114 175//175 117//117
f 113//113 149//149 114//114
f 120//120 176//176 120//120
f 178//178 120//120 176//176
f 176//176 177//177 178//178
f 120//120 178//178 179//179
f 166//166 177//177 172//172
f 176//176 172//172 177//177
f 177//177 177//177 176//176
f 172//172 176//176 120//120
f 149//149 180//180 175//175
f 117//117 175//175 180//180
f 180//180 167//167 117//117
f 175//175 117//117 117//117
f 125//125 181//181 139//139
f 170//170 139//139 181//181
f 181//181 135//135 170//170
f 139//139 170//170 50//50
f 50//50 169//169 182//182
f 141//141 182//182 169//169
f 169//169 151//151 141//141
f 182//182 141//141 141//141
f 141//141 138//138 182//182
f 183//183 182//182 138//138
f 138//138 138//138 183//183
f 182//182 183//183 50//50
f 55//55 184//184 55//55
f 153//153 55//55 184//184
f 184//184 154//154 153//153
f 55//55 153//153 54//54
f 125//125 127//127 181//181
f 136//136 181//181 127//127
f 127//127 130//130 136//136
f 181//181 136//136 135//135
f 95//95 174//174 95//95
f 185//185 95//95 174//174
f 174//174 163//163 185//185
f 95//95 185//185 128//128
f 55//55 122//122 55//55
f 186//186 55//55 122//122
f 122//122 59//59 186//186
f 55//55 186//186 120//120
f 187//187 188//188 189//189
f 59//59 189//189 194//194
f 186//186 194//194 193//193
f 120//120 193//193 192//192
f 188//188 190//190 191//191
f 189//189 191//191 189//189
f 194//194 189//189 191//191
f 193//193 191//191 190//190
f 190//190 192//192 193//193
f 191//191 193//193 194//194
f 189//189 194//194 189//189
f 191//191 189//189 188//188
f 192//192 120//120 120//120
f 193//193 120//120 186//186
f 194//194 186//186 59//59
f 189//189 59//59 59//59
f 93//93 93//93 195//195
f 188//188 195//195 198//198
f 190//190 198//198 197//197
f 192//192 197//197 120//120
f 93//93 121//121 196//196
f 195//195 196//196 195//195
f 198//198 195//195 196//196
f 197//197 196//196 121//121
f 121//121 120//120 197//197
f 196//196 197//197 198//198
f 195//195 198//198 195//195
f 196//196 195//195 93//93
f 120//120 120//120 192//192
f 197//197 192//192 190//190
f 198//198 190//190 188//188
f 195//195 188//188 187//187
f 56//56 66//66 187//187
f 163//163 199//199 185//185
f 129//129 185//185 199//199
f 199//199 130//130 129//129
f 185//185 129//129 128//128
f 142//142 200//200 143//143
f 201//201 143//143 200//200
f 200//200 45//45 201//201
f 143//143 201//201 138//138
f 146//146 147//147 168//168
f 199//199 168//168 147//147
f 147//147 130//130 199//199
f 168//168 199//199 163//163
f 50//50 183//183 148//148
f 201//201 148//148 183//183
f 183//183 138//138 201//201
f 148//148 201//201 45//45
f 21//21 134//134 202//202
f 140//140 202//202 134//134
f 134//134 7//7 140//140
f 202//202 140//140 50//50
f 142//142 144//144 142//142
f 203//203 142//142 144//144
f 144//144 146//146 203//203
f 142//142 203//203 165//165
f 177//177 165//165 177//177
f 203//203 177//177 165//165
f 165//165 165//165 203//203
f 177//177 203//203 146//146
f 146//146 161//161 177//177
f 161//161 179//179 161//161
f 178//178 161//161 179//179
f 179//179 179//179 178//178
f 161//161 178//178 177//177
f 158//158 157//157 158//158
f 173//173 158//158 157//157
f 157//157 156//156 173//173
f 158//158 173//173 166//166
f 165//165 177//177 166//166
f 179//179 154//154 179//179
f 184//184 179//179 154//154
f 154//154 154//154 184//184
f 179//179 184//184 55//55
f 161//161 154//154 179//179
f 55//55 120//120 179//179
f 167//167 158//158 117//117
f 117//117 158//158 166//166
f 45//45 200//200 101//101
f 150//150 101//101 200//200
f 200//200 142//142 150//150
f 101//101 150//150 40//40
f 149//149 142//142 165//165
f 165//165 167//167 165//165
f 180//180 165//165 167//167
f 167//167 167//167 180//180
f 165//165 180//180 149//149
f 93//93 195//195 118//118
f 66//66 118//118 195//195
f 195//195 187//187 66//66
f 118//118 66//66 66//66
f 117//117 171//171 117//117
f 119//119 117//117 171//171
f 171//171 120//120 119//119
f 117//117 119//119 52//52
f 167//167 156//156 160//160
f 56//56 187//187 57//57
f 189//189 57//57 187//187
f 187//187 187//187 189//189
f 57//57 189//189 59//59
f 33//33 39//39 33//33
f 202//202 33//33 39//39
f 39//39 21//21 202//202
f 33//33 202//202 50//50
