####
#
# OBJ File Generated by Meshlab
#
####
# Object orc+bust_146.obj
#
# Vertices: 75
# Faces: 146
#
####
vn -0.183783 -0.451204 0.873292
v 2.207264 -25.368294 26.914906
vn 0.115532 0.546301 -0.829583
v 7.565109 -20.239946 -27.179277
vn 0.768904 0.639334 0.006237
v 14.365942 23.928818 0.114731
vn -0.634687 -0.305085 -0.709997
v -42.882957 -63.555031 -34.631653
vn 0.361428 0.790023 -0.495211
v 42.525681 -33.294060 -30.821491
vn 0.528396 -0.649713 -0.546508
v 36.223118 -89.483139 -31.364086
vn 0.734271 0.426797 0.527912
v 19.667835 -38.734348 -2.680611
vn 0.839766 -0.464391 -0.281309
v 46.196941 -69.218086 -27.706692
vn -0.002418 -0.755887 0.654698
v -0.037319 -89.494858 16.994312
vn -0.362899 0.567210 0.739308
v -34.178062 -50.313072 -7.904488
vn -0.683672 0.727240 -0.060945
v -17.792099 -21.417362 -17.935816
vn 0.115652 0.988835 0.093965
v 2.014196 30.376053 6.873257
vn -0.937711 -0.289986 -0.191327
v -54.643555 -55.049339 -23.090403
vn -0.581078 -0.592055 -0.558408
v -35.596859 -89.456558 -29.745142
vn -0.051662 0.118975 0.991552
v 1.598715 -42.977978 11.912945
vn -0.944494 0.306161 -0.119151
v -26.260069 12.901507 -6.430596
vn 0.381281 0.055114 -0.922815
v 49.418301 -44.873398 -36.234272
vn -0.039940 -0.768261 -0.638890
v 2.253506 -89.498589 -31.377750
vn 0.487287 0.761275 0.427799
v 43.195351 -32.964897 -21.491735
vn -0.953448 -0.207578 0.218743
v -21.534828 -5.564718 4.185133
vn 0.371320 0.002531 0.928502
v 5.393047 1.983450 27.879356
vn 0.964312 -0.114893 0.238542
v 16.391951 -21.487144 3.573860
vn -0.503586 -0.673179 0.541508
v -23.263813 -89.498215 19.275513
vn -0.706347 0.032532 0.707118
v -14.884738 4.632112 20.205462
vn -0.036023 0.093245 -0.994991
v 2.298512 -46.681808 -36.296707
vn -0.924733 -0.380078 -0.020217
v -39.036350 -78.758957 -25.988413
vn 0.765047 0.011465 0.643873
v 54.106075 -51.499165 -7.037437
vn -0.153987 0.637540 -0.754872
v -15.305934 -24.248455 -28.903938
vn -0.045044 0.177071 -0.983167
v -29.110882 -37.865788 -36.710018
vn 0.863237 0.502974 -0.042878
v 60.792564 -43.796387 -26.577448
vn -0.677466 0.264235 0.686455
v -39.209423 -60.089180 -0.804813
vn -0.991701 0.004252 -0.128498
v -20.007441 -16.266371 -6.986628
vn -0.039351 -0.265305 -0.963361
v -15.184587 -51.574093 -35.992828
vn -0.645164 0.497909 0.579526
v -54.758224 -41.217136 -16.045738
vn 0.664635 -0.733287 0.143354
v 35.783291 -89.507141 -9.278820
vn 0.917764 -0.349369 0.188814
v 34.940060 -79.778954 -3.202106
vn -0.832215 -0.149150 -0.534016
v -22.197548 -0.556421 -14.439903
vn -0.462906 0.048633 0.885072
v -22.822607 -79.863487 20.536537
vn 0.778366 -0.140515 0.611884
v 44.089188 -66.750664 -4.381311
vn -0.330960 0.290017 -0.897973
v -4.685240 -10.314860 -22.950960
vn -0.378172 0.714102 0.589104
v -50.025944 -38.770649 -19.997534
vn 0.753379 0.303455 -0.583383
v 13.985192 11.350419 -19.260300
vn -0.661958 0.563354 -0.494413
v -54.386398 -37.685398 -29.528696
vn 0.288105 0.060036 0.955715
v 18.652346 -80.824333 21.706379
vn -0.082778 -0.171282 -0.981739
v 31.287128 -52.704639 -37.733047
vn 0.991523 0.011163 0.129452
v 19.437004 6.039310 5.033960
vn 0.124135 0.652856 0.747241
v 3.058679 24.099995 22.931839
vn 0.710138 0.673587 -0.204901
v 18.391853 -21.874290 -18.900618
vn 0.702020 -0.109811 0.703641
v 10.534818 -37.131683 7.650101
vn -0.066825 0.130700 -0.989167
v 12.880852 -39.827000 -39.196812
vn 0.622663 -0.547708 0.558843
v 24.242670 -89.556618 17.221073
vn -0.701836 0.362684 0.613096
v -23.850142 -44.246185 0.832670
vn 0.037688 -0.164661 -0.985630
v -22.890776 -78.505539 -33.633907
vn 0.758758 -0.346952 0.551281
v 13.559506 -23.230764 21.402365
vn -0.599090 0.716490 0.357398
v -16.429262 24.098751 9.509892
vn -0.201900 0.377872 -0.903576
v -7.690647 15.177340 -23.012487
vn 0.466527 0.213011 -0.858475
v 9.776841 -11.456788 -22.134632
vn 0.090514 -0.663079 0.743057
v 3.412107 -32.894947 16.265621
vn 0.293701 0.837766 -0.460312
v 5.155616 26.540203 -9.640732
vn -0.885909 -0.180425 0.427332
v -31.147346 -80.555542 4.028442
vn 0.162210 -0.145657 -0.975947
v 34.468525 -73.238472 -34.872261
vn -0.862907 -0.305070 0.402894
v -51.116909 -61.003529 -11.957677
vn -0.311261 0.901671 -0.300178
v -7.858319 28.954794 -6.079518
vn -0.755273 -0.630405 0.179312
v -35.155937 -89.504906 -8.059225
vn -0.095400 -0.099245 -0.990479
v 11.945868 -79.076851 -34.731770
vn 0.496536 0.456028 0.738573
v 23.738983 -50.295620 9.085267
vn 0.062443 -0.061545 -0.996149
v -7.611600 -47.471237 -39.221897
vn 0.833023 0.206864 0.513108
v 15.070741 11.991840 20.279198
vn -0.087578 -0.147663 -0.985153
v 21.584372 -60.932148 -32.423241
vn -0.721542 -0.286186 0.630456
v -12.293032 -25.561220 10.382029
vn 0.979135 0.077585 -0.187820
v 17.783716 -6.071098 -8.472746
vn 0.411028 0.563394 0.716689
v 37.638443 -42.855568 -10.559132
vn -0.047720 -0.218112 -0.974756
v -0.515762 -60.673111 -31.785763
vn -0.482389 0.449364 0.751913
v -25.846750 -57.023659 11.393654
vn -0.186647 -0.053901 -0.980947
v -36.820194 -55.007763 -39.890759
# 75 vertices, 0 vertices normals

f 6//6 35//35 9//9
f 51//51 9//9 35//35
f 6//6 9//9 18//18
f 74//74 52//52 31//31
f 34//34 62//62 31//31
f 8//8 27//27 39//39
f 34//34 41//41 43//43
f 18//18 9//9 23//23
f 53//53 75//75 29//29
f 11//11 32//32 40//40
f 18//18 64//64 14//14
f 29//29 75//75 43//43
f 75//75 4//4 43//43
f 58//58 70//70 15//15
f 60//60 31//31 62//62
f 11//11 41//41 52//52
f 8//8 17//17 30//30
f 32//32 37//37 40//40
f 5//5 30//30 17//17
f 48//48 2//2 57//57
f 11//11 28//28 43//43
f 2//2 48//48 5//5
f 7//7 48//48 71//71
f 30//30 27//27 8//8
f 48//48 57//57 71//71
f 55//55 12//12 63//63
f 72//72 30//30 19//19
f 16//16 55//55 63//63
f 60//60 64//64 23//23
f 21//21 54//54 46//46
f 37//37 16//16 56//56
f 59//59 42//42 56//56
f 31//31 52//52 10//10
f 46//46 68//68 21//21
f 72//72 7//7 66//66
f 55//55 16//16 24//24
f 48//48 7//7 19//19
f 26//26 62//62 13//13
f 5//5 19//19 30//30
f 40//40 25//25 28//28
f 68//68 3//3 47//47
f 44//44 15//15 9//9
f 51//51 44//44 9//9
f 19//19 7//7 72//72
f 59//59 63//63 12//12
f 39//39 72//72 66//66
f 50//50 69//69 25//25
f 3//3 68//68 46//46
f 16//16 37//37 20//20
f 65//65 18//18 73//73
f 16//16 63//63 56//56
f 32//32 20//20 37//37
f 8//8 61//61 17//17
f 49//49 22//22 54//54
f 9//9 15//15 38//38
f 57//57 2//2 40//40
f 25//25 69//69 65//65
f 42//42 46//46 71//71
f 27//27 72//72 39//39
f 51//51 39//39 44//44
f 23//23 9//9 38//38
f 10//10 52//52 41//41
f 50//50 2//2 5//5
f 65//65 6//6 18//18
f 61//61 69//69 45//45
f 58//58 49//49 54//54
f 14//14 26//26 4//4
f 54//54 21//21 1//1
f 12//12 3//3 59//59
f 22//22 46//46 54//54
f 24//24 1//1 21//21
f 38//38 31//31 60//60
f 56//56 57//57 40//40
f 36//36 6//6 8//8
f 51//51 35//35 36//36
f 3//3 12//12 47//47
f 16//16 20//20 24//24
f 20//20 32//32 70//70
f 33//33 73//73 53//53
f 74//74 38//38 15//15
f 67//67 73//73 33//33
f 52//52 32//32 11//11
f 28//28 67//67 29//29
f 11//11 43//43 41//41
f 30//30 72//72 27//27
f 24//24 47//47 55//55
f 56//56 40//40 37//37
f 10//10 41//41 34//34
f 49//49 7//7 22//22
f 51//51 36//36 39//39
f 25//25 73//73 67//67
f 73//73 18//18 53//53
f 52//52 15//15 70//70
f 48//48 19//19 5//5
f 52//52 70//70 32//32
f 47//47 21//21 68//68
f 23//23 64//64 18//18
f 69//69 50//50 45//45
f 17//17 50//50 5//5
f 61//61 65//65 69//69
f 13//13 62//62 34//34
f 25//25 40//40 2//2
f 15//15 44//44 66//66
f 25//25 65//65 73//73
f 71//71 46//46 22//22
f 66//66 44//44 39//39
f 28//28 11//11 40//40
f 39//39 36//36 8//8
f 33//33 53//53 29//29
f 58//58 1//1 70//70
f 6//6 61//61 8//8
f 66//66 49//49 15//15
f 24//24 70//70 1//1
f 53//53 4//4 75//75
f 67//67 33//33 29//29
f 13//13 34//34 43//43
f 22//22 7//7 71//71
f 38//38 74//74 31//31
f 46//46 42//42 3//3
f 58//58 15//15 49//49
f 53//53 14//14 4//4
f 60//60 26//26 64//64
f 61//61 6//6 65//65
f 43//43 28//28 29//29
f 61//61 45//45 17//17
f 35//35 6//6 36//36
f 25//25 67//67 28//28
f 47//47 24//24 21//21
f 50//50 25//25 2//2
f 7//7 49//49 66//66
f 42//42 59//59 3//3
f 4//4 26//26 13//13
f 24//24 20//20 70//70
f 23//23 38//38 60//60
f 55//55 47//47 12//12
f 17//17 45//45 50//50
f 64//64 26//26 14//14
f 4//4 13//13 43//43
f 42//42 71//71 57//57
f 62//62 26//26 60//60
f 52//52 74//74 15//15
f 53//53 18//18 14//14
f 1//1 58//58 54//54
f 42//42 57//57 56//56
f 34//34 31//31 10//10
f 63//63 59//59 56//56
# 146 faces, 0 coords texture

# End of File
