####
#
# OBJ File Generated by Meshlab
#
####
# Object pallas_250.obj
#
# Vertices: 127
# Faces: 250
#
####
vn 0.789583 -0.612499 -0.037454
v 4.516542 -17.860561 21.705000
vn 0.196257 -0.499469 0.843809
v 1.765117 -18.574638 27.051807
vn 0.032727 0.155338 0.987319
v -0.214423 -9.742757 26.337524
vn 0.783949 0.105096 0.611865
v 3.851135 -10.374952 24.447435
vn -0.635105 -0.732300 -0.245719
v -4.040723 -16.383085 19.144371
vn 0.609685 -0.739356 -0.285723
v 5.677015 -13.042366 12.494474
vn 0.538433 -0.826886 -0.162327
v 5.282791 -9.999419 3.699400
vn -0.323214 -0.633245 -0.703231
v 2.200873 -12.572884 11.051526
vn -0.061026 0.247114 -0.967063
v 3.448740 -6.777681 9.499067
vn 0.919455 -0.383541 -0.086598
v 5.405692 -13.766307 18.909168
vn 0.991694 0.041812 0.121635
v 6.060610 -6.805499 17.180204
vn 0.754463 -0.250525 -0.606649
v 5.162876 4.953392 10.388001
vn 0.412160 0.161725 0.896643
v 2.315620 8.737962 24.829041
vn 0.700961 0.429410 -0.569439
v 5.194100 -8.176558 0.785738
vn 0.276589 -0.692509 -0.666280
v 4.485840 -12.536367 0.888361
vn 0.332517 0.384383 0.861210
v 1.614400 12.566583 24.094435
vn -0.964840 0.251056 -0.077807
v 1.255328 15.339733 6.349056
vn 0.787317 -0.216765 -0.577187
v 6.278558 8.874641 9.056138
vn 0.775508 0.423422 0.468296
v 4.790192 12.719891 21.475107
vn 0.980811 0.084815 0.175544
v 6.676313 9.675486 17.109810
vn -0.883102 0.455219 0.113605
v 1.741710 13.280743 11.852921
vn -0.533659 0.821150 -0.202291
v 2.875755 -7.316419 2.721495
vn 0.395655 -0.327148 -0.858156
v 4.922668 7.232118 8.293854
vn -0.413308 -0.856872 -0.308134
v 3.104699 12.722606 3.694692
vn -0.421424 -0.383657 -0.821711
v 1.570666 10.241842 7.374637
vn 0.735058 0.010744 0.677919
v 3.685850 4.609512 24.177731
vn 0.811730 0.083143 0.578085
v 4.775672 8.502539 23.261461
vn -0.203810 0.633380 -0.746520
v 0.545370 12.206600 14.419260
vn 0.282997 -0.409779 -0.867176
v 0.025967 25.825737 5.284851
vn 0.480024 0.869125 -0.119163
v 3.928442 14.727150 18.699556
vn 0.841623 0.539195 0.030637
v 6.163959 13.295267 13.655615
vn 0.873367 0.005045 0.487037
v 4.123963 -5.216262 23.107819
vn 0.505483 -0.002000 0.862834
v 1.820481 -5.565767 25.319954
vn 0.946175 -0.096776 0.308847
v 5.560875 -3.513407 19.931221
vn 0.778392 -0.061019 0.624806
v 4.068934 -0.715318 23.953472
vn 0.374783 0.006153 0.927092
v 1.549147 -1.149136 25.742704
vn 0.938055 -0.034581 0.344757
v 5.657647 -0.427790 20.973406
vn 0.984787 0.171247 -0.029498
v 2.037545 27.116714 7.420886
vn -0.237288 0.711186 0.661747
v -0.426894 24.448242 12.706859
vn 0.832993 0.499413 0.238138
v 2.135142 16.474344 20.365541
vn 0.785139 -0.475274 -0.397079
v 2.270452 21.317406 11.874706
vn 0.535282 0.644726 -0.545713
v 1.102016 30.130466 6.237795
vn 0.664305 0.189999 -0.722910
v 1.719210 15.780416 19.852842
vn 0.959355 -0.025763 0.281025
v 5.746406 3.727916 20.329914
vn 0.999115 -0.041955 -0.003161
v 6.550373 -2.358769 14.763751
vn 0.900912 -0.016136 -0.433702
v 5.873821 -0.365182 12.330312
vn 0.990260 -0.100279 -0.096589
v 6.545532 5.230351 14.965939
vn 0.997731 -0.033419 -0.058453
v 6.709576 -9.440022 8.985409
vn 0.971355 -0.017259 0.237006
v 5.627458 -9.860990 20.391273
vn 0.839257 0.424139 -0.340227
v 5.445735 -6.561039 11.524294
vn -0.809443 -0.187752 -0.556374
v 2.506085 -9.038195 0.875173
vn 0.992893 0.063436 -0.100698
v 6.984334 9.716585 11.765031
vn 0.110258 0.993902 -0.001368
v 4.088643 14.608071 12.535380
vn 0.244002 0.964046 0.105253
v 3.960881 16.611120 8.567657
vn 0.358803 -0.042593 -0.932441
v 2.458033 -3.111864 8.425425
vn -0.255422 0.071132 -0.964209
v 1.856615 4.935231 8.998503
vn 0.447782 0.186437 -0.874490
v -1.427546 5.529130 9.819427
vn -0.438768 0.101104 -0.892895
v -0.513945 28.211979 4.844790
vn 0.767946 -0.478778 -0.425476
v 5.474103 12.704787 0.901174
vn -0.741500 0.280667 -0.609429
v 2.165026 14.803366 0.618498
vn 0.958726 -0.068515 -0.275952
v 5.187643 13.094153 6.863722
vn 0.682489 0.007341 0.730859
v 3.613285 -15.377351 26.985186
vn -0.127801 0.002014 0.991798
v -0.346429 -4.063242 25.994228
vn -0.292141 -0.719772 -0.629748
v -0.542944 20.154829 10.689157
vn 0.569261 0.602200 0.559729
v 1.273475 25.194504 11.520851
vn -0.499932 -0.863283 0.069363
v -2.494101 -20.729288 22.457577
vn -0.610069 -0.099631 0.786059
v -3.606056 -14.985391 26.869408
vn 0.210065 -0.940371 -0.267534
v 1.134780 -17.427956 17.827574
vn -0.898376 0.205969 -0.387941
v -5.441586 -5.772963 11.482509
vn -0.382129 -0.825892 -0.414584
v -5.052530 -12.790857 11.381832
vn -0.371004 0.760608 -0.532759
v -4.753520 -6.318806 10.242279
vn -0.730185 0.093126 0.676873
v -4.350377 8.339842 23.675289
vn -0.129050 0.100996 0.986482
v -0.717801 4.016137 25.757950
vn -0.354087 -0.070866 -0.932524
v -2.125686 -2.616091 8.457081
vn -0.976133 -0.196562 0.092342
v -5.451625 -12.885043 20.140362
vn 0.137060 -0.679441 -0.720815
v -4.418333 -11.790401 0.042104
vn 0.614761 -0.771055 -0.165959
v -3.096246 -10.161281 2.570784
vn -0.926319 -0.178047 -0.332014
v -2.171086 26.010778 8.035170
vn 0.873837 0.229161 -0.428828
v -2.431104 15.206272 1.241009
vn -0.831745 0.335166 0.442565
v -5.344900 11.784454 21.358574
vn 0.909480 0.410367 0.066665
v -1.270100 15.159906 8.048768
vn 0.634181 -0.457591 -0.623237
v -2.272069 12.670645 6.680200
vn -0.976441 -0.040881 -0.211878
v -6.634358 9.193319 10.030219
vn -0.845613 0.531675 0.047541
v -5.731840 13.564044 10.806659
vn -0.983069 -0.121908 -0.136798
v -6.661184 6.280228 14.608073
vn 0.771325 0.512857 -0.376876
v -2.841064 -7.490812 1.679448
vn 0.726060 0.676547 0.122968
v -2.919274 -7.425276 8.498623
vn -0.813078 -0.572751 -0.104217
v -5.700275 -9.553853 3.419849
vn -0.515198 -0.313725 -0.797589
v -4.950350 6.959634 8.198613
vn -0.946788 -0.119390 -0.298897
v -5.510951 14.076964 7.247145
vn 0.986711 0.065913 -0.148514
v -1.213096 12.797434 8.361441
vn 0.774729 0.379545 -0.505708
v -1.075570 11.062007 13.325479
vn -0.985963 0.153630 0.065381
v -6.907282 10.194572 15.684983
vn -0.118347 0.975907 0.183299
v -4.389716 14.646733 10.947918
vn -0.710743 0.691344 0.129955
v -4.966124 13.998584 17.868107
vn -0.131740 0.980163 -0.148073
v -1.911473 15.603709 18.877781
vn -0.747705 0.472403 -0.466660
v -5.255998 -8.107749 0.875025
vn -0.715713 0.075418 0.694310
v -3.364138 -8.041195 24.213787
vn -0.356230 0.389482 0.849355
v -1.157704 13.084427 24.137085
vn -0.965467 -0.254370 -0.056305
v -6.580359 -11.342734 15.050803
vn -0.612114 -0.755592 -0.233230
v -4.190183 -15.096253 14.805882
vn -0.975428 -0.045680 0.215530
v -6.065892 -0.970069 18.637030
vn -0.946080 -0.024763 0.322986
v -4.730310 -4.844634 21.853409
vn -0.584186 -0.010185 0.811556
v -3.116571 -0.685769 24.803421
vn -0.900516 -0.049259 0.432023
v -5.142344 -0.454406 22.289701
vn -0.828567 0.413766 0.377192
v -2.011664 19.596287 17.101288
vn -0.914101 -0.347734 -0.208566
v -2.282733 19.130356 15.171189
vn -0.777902 0.534167 0.330961
v -1.782415 15.274240 21.660919
vn 0.318688 0.774454 0.546497
v 0.658390 29.805182 8.132479
vn -0.742734 0.666885 0.060093
v -1.790735 29.188255 6.539647
vn -0.071465 0.685541 0.724518
v -0.015697 17.628815 21.496597
vn -0.108354 -0.824796 -0.554951
v -0.031499 16.699326 15.665992
vn -0.762327 0.019704 -0.646892
v -4.790177 1.091520 10.823775
vn -0.882072 -0.103515 -0.459601
v -5.621253 3.774296 12.041846
vn -0.999738 -0.015100 -0.017186
v -6.429502 -4.955134 14.818542
vn 0.043113 -0.807112 -0.588823
v 1.272403 -16.352991 14.454283
vn -0.932270 0.300462 -0.201483
v -6.566499 -8.812068 7.463069
vn 0.248098 -0.691427 -0.678510
v -2.310497 -12.234308 11.130326
vn 0.559480 -0.127305 -0.819009
v -1.676203 -9.703709 9.987092
vn 0.613452 0.735360 -0.287962
v -2.785945 14.261235 13.547842
vn -0.302543 0.945951 0.116807
v -2.788327 16.943151 8.045532
vn -0.319645 0.017899 -0.947368
v -3.252586 3.805518 9.073111
vn 0.062021 0.932761 -0.355120
v 1.225261 15.268794 16.972818
vn -0.956049 -0.138328 0.258526
v -4.901606 -14.802734 23.871166
vn -0.946274 0.042630 -0.320543
v -5.490804 12.991458 0.780477
vn 0.160068 -0.957250 0.240936
v -3.272043 12.446763 2.953074
vn 0.474991 -0.792575 -0.382372
v -2.927868 10.449104 0.346474
# 127 vertices, 0 vertices normals

f 68//68 10//10 1//1
f 1//1 62//62 2//2
f 1//1 49//49 4//4
f 10//10 49//49 1//1
f 1//1 4//4 62//62
f 1//1 66//66 5//5
f 4//4 3//3 62//62
f 1//1 5//5 68//68
f 14//14 50//50 48//48
f 9//9 50//50 22//22
f 48//48 10//10 6//6
f 37//37 44//44 26//26
f 35//35 37//37 26//26
f 45//45 34//34 11//11
f 46//46 45//45 50//50
f 46//46 50//50 55//55
f 44//44 27//27 26//26
f 44//44 20//20 27//27
f 9//9 55//55 50//50
f 26//26 13//13 36//36
f 36//36 13//13 73//73
f 55//55 9//9 119//119
f 119//119 8//8 118//118
f 14//14 51//51 22//22
f 50//50 14//14 22//22
f 7//7 15//15 14//14
f 40//40 19//19 30//30
f 41//41 38//38 40//40
f 65//65 40//40 38//38
f 99//99 73//73 16//16
f 13//13 16//16 73//73
f 60//60 24//24 17//17
f 54//54 59//59 60//60
f 61//61 53//53 31//31
f 21//21 17//17 25//25
f 31//31 20//20 52//52
f 25//25 18//18 23//23
f 61//61 18//18 25//25
f 49//49 11//11 32//32
f 20//20 44//44 47//47
f 12//12 47//47 46//46
f 8//8 7//7 6//6
f 10//10 68//68 6//6
f 6//6 68//68 116//116
f 7//7 8//8 51//51
f 7//7 14//14 48//48
f 51//51 15//15 7//7
f 18//18 12//12 23//23
f 56//56 23//23 12//12
f 61//61 25//25 24//24
f 17//17 24//24 25//25
f 24//24 59//59 61//61
f 32//32 33//33 4//4
f 13//13 26//26 27//27
f 21//21 56//56 28//28
f 57//57 28//28 56//56
f 29//29 38//38 41//41
f 20//20 31//31 19//19
f 30//30 19//19 31//31
f 53//53 123//123 30//30
f 21//21 25//25 56//56
f 34//34 35//35 32//32
f 34//34 32//32 11//11
f 35//35 33//33 32//32
f 33//33 36//36 63//63
f 48//48 6//6 7//7
f 9//9 22//22 8//8
f 48//48 49//49 10//10
f 37//37 35//35 34//34
f 36//36 33//33 35//35
f 36//36 35//35 26//26
f 111//111 65//65 39//39
f 41//41 40//40 43//43
f 109//109 65//65 38//38
f 65//65 111//111 40//40
f 112//112 41//41 43//43
f 42//42 109//109 38//38
f 42//42 29//29 58//58
f 29//29 42//42 38//38
f 16//16 40//40 111//111
f 16//16 19//19 40//40
f 40//40 30//30 43//43
f 46//46 55//55 12//12
f 45//45 47//47 44//44
f 34//34 45//45 37//37
f 53//53 30//30 31//31
f 56//56 55//55 122//122
f 46//46 47//47 45//45
f 37//37 45//45 44//44
f 8//8 6//6 116//116
f 50//50 45//45 11//11
f 50//50 11//11 48//48
f 49//49 48//48 11//11
f 51//51 8//8 22//22
f 9//9 8//8 119//119
f 3//3 2//2 62//62
f 52//52 47//47 18//18
f 18//18 47//47 12//12
f 47//47 52//52 20//20
f 61//61 31//31 52//52
f 18//18 61//61 52//52
f 19//19 16//16 13//13
f 19//19 13//13 27//27
f 20//20 19//19 27//27
f 123//123 43//43 30//30
f 53//53 54//54 21//21
f 123//123 53//53 28//28
f 53//53 21//21 28//28
f 17//17 54//54 60//60
f 54//54 53//53 61//61
f 17//17 21//21 54//54
f 55//55 56//56 12//12
f 23//23 56//56 25//25
f 51//51 14//14 15//15
f 66//66 1//1 2//2
f 56//56 122//122 57//57
f 41//41 64//64 29//29
f 96//96 43//43 123//123
f 65//65 109//109 39//39
f 111//111 99//99 16//16
f 60//60 59//59 24//24
f 61//61 59//59 54//54
f 32//32 4//4 49//49
f 4//4 33//33 3//3
f 36//36 73//73 63//63
f 33//33 63//63 3//3
f 41//41 112//112 64//64
f 124//124 67//67 98//98
f 66//66 2//2 67//67
f 66//66 67//67 124//124
f 5//5 66//66 124//124
f 5//5 124//124 75//75
f 98//98 67//67 3//3
f 101//101 68//68 5//5
f 71//71 117//117 69//69
f 70//70 100//100 88//88
f 71//71 97//97 117//117
f 77//77 118//118 70//70
f 77//77 119//119 118//118
f 71//71 87//87 86//86
f 101//101 100//100 70//70
f 75//75 100//100 101//101
f 102//102 105//105 72//72
f 69//69 113//113 71//71
f 71//71 113//113 74//74
f 69//69 114//114 113//113
f 119//119 71//71 74//74
f 102//102 72//72 80//80
f 74//74 55//55 119//119
f 101//101 116//116 68//68
f 5//5 75//75 101//101
f 86//86 97//97 71//71
f 88//88 117//117 97//97
f 77//77 88//88 76//76
f 76//76 97//97 86//86
f 95//95 108//108 96//96
f 108//108 99//99 111//111
f 106//106 108//108 111//111
f 72//72 73//73 99//99
f 81//81 82//82 79//79
f 125//125 90//90 121//121
f 125//125 121//121 79//79
f 90//90 89//89 83//83
f 81//81 120//120 91//91
f 57//57 89//89 82//82
f 85//85 93//93 83//83
f 84//84 83//83 93//93
f 95//95 94//94 84//84
f 95//95 84//84 93//93
f 82//82 89//89 90//90
f 102//102 85//85 115//115
f 102//102 80//80 93//93
f 85//85 102//102 93//93
f 71//71 119//119 87//87
f 119//119 86//86 87//87
f 126//126 79//79 82//82
f 91//91 82//82 81//81
f 121//121 81//81 79//79
f 126//126 82//82 90//90
f 82//82 91//91 57//57
f 105//105 104//104 72//72
f 73//73 72//72 104//104
f 57//57 92//92 28//28
f 112//112 96//96 108//108
f 95//95 93//93 80//80
f 95//95 96//96 94//94
f 96//96 123//123 120//120
f 88//88 97//97 76//76
f 120//120 92//92 91//91
f 57//57 91//91 92//92
f 105//105 103//103 98//98
f 105//105 98//98 104//104
f 104//104 98//98 63//63
f 88//88 77//77 70//70
f 80//80 72//72 99//99
f 103//103 102//102 115//115
f 105//105 102//102 103//103
f 107//107 108//108 106//106
f 78//78 58//58 29//29
f 39//39 106//106 111//111
f 107//107 112//112 108//108
f 107//107 106//106 78//78
f 112//112 107//107 64//64
f 58//58 78//78 110//110
f 74//74 113//113 122//122
f 122//122 113//113 114//114
f 120//120 94//94 96//96
f 115//115 85//85 114//114
f 114//114 69//69 115//115
f 74//74 122//122 55//55
f 101//101 70//70 116//116
f 116//116 70//70 118//118
f 103//103 115//115 75//75
f 69//69 100//100 115//115
f 88//88 100//100 117//117
f 69//69 117//117 100//100
f 100//100 75//75 115//115
f 119//119 77//77 86//86
f 2//2 3//3 67//67
f 83//83 89//89 85//85
f 89//89 114//114 85//85
f 122//122 114//114 89//89
f 92//92 120//120 28//28
f 108//108 80//80 99//99
f 108//108 95//95 80//80
f 121//121 84//84 94//94
f 120//120 81//81 94//94
f 94//94 81//81 121//121
f 83//83 84//84 90//90
f 84//84 121//121 90//90
f 122//122 89//89 57//57
f 86//86 77//77 76//76
f 39//39 110//110 106//106
f 110//110 39//39 109//109
f 112//112 43//43 96//96
f 123//123 28//28 120//120
f 58//58 110//110 42//42
f 109//109 42//42 110//110
f 126//126 127//127 79//79
f 126//126 125//125 127//127
f 125//125 79//79 127//127
f 90//90 125//125 126//126
f 103//103 124//124 98//98
f 75//75 124//124 103//103
f 104//104 63//63 73//73
f 3//3 63//63 98//98
f 110//110 78//78 106//106
f 64//64 78//78 29//29
f 64//64 107//107 78//78
f 118//118 8//8 116//116
# 250 faces, 0 coords texture

# End of File
