vn 0.486165 0.365133 -0.267035
v 0.914752 28.639492 6.412179
vn 0.237511 0.966026 0.101899
v 0.062511 31.212231 6.306745
vn -0.060007 -0.161088 -0.573813
v -0.188036 26.393843 6.246657
vn 0.831303 -0.267413 -0.429532
v 2.073743 23.127663 9.836943
vn 0.734819 -0.235760 -0.635970
v 1.766994 26.066755 6.517612
vn 0.395448 -0.483077 -0.658345
v 0.543886 21.390976 10.622477
vn -0.854834 -0.086416 -0.511655
v -2.143067 26.720930 5.975703
vn -0.823409 0.257666 -0.204203
v -2.235698 21.240248 13.482535
vn -0.399378 -0.408406 -0.596187
v -1.411144 21.718063 10.351521
vn 0.123166 0.600579 0.512501
v 0.328651 24.009487 12.806936
vn -0.631416 0.634383 0.340325
v -1.705910 20.248878 16.700270
vn -0.470847 0.667017 0.577400
v -1.083490 24.738194 12.411172
vn -0.282045 0.637450 0.682966
v -0.681074 20.132740 17.901474
vn 0.750214 0.525726 0.396218
v 1.803905 19.393974 17.403559
vn 0.311968 0.571012 0.618068
v 0.731067 19.404034 18.297237
vn 0.717179 0.534141 0.447603
v 1.740792 23.280783 13.202701
vn 0.491932 -0.514731 -0.451906
v 0.850635 18.451881 13.941807
vn 0.927787 -0.299066 -0.223093
v 2.380493 20.188568 13.156273
vn 0.056077 -0.730395 -0.680719
v -0.679222 16.715197 14.727341
vn -0.367953 -0.064323 -0.288735
v -1.503776 16.237381 17.858355
vn 0.300088 0.871969 -0.175551
v -2.330673 15.450953 10.670478
vn 0.023747 0.999622 -0.013876
v -2.909204 16.990097 8.066285
vn -0.356698 0.790516 -0.041685
v 0.688494 15.360592 18.011627
vn -0.107778 0.673033 -0.116989
v -2.040236 14.835687 17.132019
vn -0.136999 0.616209 -0.266762
v -3.538904 14.056647 10.719881
vn 0.142481 0.975085 -0.154113
v 3.499468 15.635945 11.177517
vn 0.206375 0.970887 -0.121606
v 3.293617 16.310272 7.321146
vn 0.536614 0.426845 -0.303099
v 4.690575 14.040754 7.369878
vn 0.536877 0.729668 -0.013184
v 4.762713 14.776827 11.273451
vn 0.777248 0.313497 -0.545532
v -2.100637 14.238460 0.555162
vn -0.810127 -0.327736 -0.486090
v -4.742103 13.262421 0.870335
vn -0.821205 0.544925 -0.046524
v -3.826999 14.980526 14.577230
vn -0.791984 0.601748 0.103249
v -2.328330 15.759565 20.989368
vn 0.783250 0.517311 0.344832
v 1.867017 15.507166 21.604416
vn 0.327508 0.861801 -0.261923
v 0.976589 14.436713 14.154280
vn -0.050656 0.735927 -0.519048
v 1.717640 13.208933 14.345830
vn -0.402884 0.507578 -0.326026
v 2.520479 14.194595 10.780246
vn 0.078587 0.979284 -0.186619
v 3.705319 14.961618 15.033888
vn 0.261531 0.050826 -0.698890
v 4.667322 12.628900 4.338057
vn -0.343792 0.218850 -0.913188
v 3.247111 13.486563 1.257504
vn 0.673099 0.633867 0.380986
v 4.201877 14.026724 20.374186
vn -0.442553 0.512510 0.617285
v -2.524490 14.217211 22.441853
vn -0.340502 0.375202 0.792457
v -1.939152 11.837542 23.974928
vn -0.093242 0.607884 0.788532
v -0.278658 15.527287 23.391775
vn -0.850426 0.488101 -0.196297
v -5.325668 14.201487 8.165092
vn -0.791863 0.417137 0.446037
v -4.770322 12.907134 21.491930
vn -0.689812 0.279829 0.621210
v -4.184984 10.527466 23.025005
vn -0.873204 0.241757 0.368308
v -5.460574 11.157811 20.496853
vn 0.576429 0.744317 -0.337227
v -1.752141 13.911808 13.274671
vn 0.198265 0.618443 -0.594352
v -1.011090 12.684028 13.466221
vn -0.532127 0.264221 -0.658455
v 0.532801 12.441910 10.092188
vn 0.761155 -0.405109 -0.506488
v -1.300210 13.244763 6.445957
vn 0.082363 -0.309545 -0.640053
v -3.555222 10.703012 7.258894
vn 0.867117 0.185625 -0.194677
v 6.159671 12.507309 11.322183
vn 0.867380 0.488448 0.095237
v 6.231809 13.243381 15.225756
vn -0.179898 0.492569 -0.851477
v -0.270038 11.456247 13.657772
vn 0.122825 0.339637 -0.868471
v -0.780900 8.869715 11.869554
vn -0.315458 0.327176 -0.864603
v 0.504786 8.814011 11.964670
vn -0.008751 -0.040663 -0.475012
v 3.711586 12.599404 6.972606
vn -0.884356 0.035872 -0.465433
v 1.335640 13.427572 6.526603
vn -0.961745 0.272380 0.029255
v -6.885649 11.364739 14.086350
vn 0.866854 -0.117197 -0.484592
v 6.087533 11.771236 7.418609
vn -0.085440 -0.013637 -0.829543
v -3.550997 7.222220 9.076583
vn -0.596428 -0.213980 -0.773619
v -5.810234 8.161260 8.071831
vn -0.954546 0.066377 0.290579
v -6.150826 9.408488 19.501774
vn -0.451017 0.161783 -0.877730
v 1.279611 6.171773 10.271568
vn -0.012735 0.174244 -0.881598
v -0.006075 6.227477 10.176452
vn 0.425548 0.186705 -0.885466
v -1.291761 6.283181 10.081335
vn -0.323248 -0.711763 -0.495657
v -3.323543 -16.036179 16.605103
vn 0.098613 -0.760495 -0.622437
v -1.115770 -15.122545 13.861996
vn 0.951754 -0.266159 0.152724
v 5.477803 -13.959388 20.842899
vn 0.211093 -0.820316 -0.531528
v 1.129525 -17.300377 16.418900
vn 0.694931 -0.379945 0.610502
v 4.174592 -17.308619 26.633030
vn -0.609175 -0.409518 0.679117
v -3.563175 -17.908741 27.295433
vn 0.220838 -0.965245 -0.139759
v 0.740967 -21.369043 20.355219
vn -0.632629 -0.722852 -0.277967
v -3.286021 -19.127644 21.905113
vn -0.013867 -0.700674 -0.713347
v -3.361064 -12.944713 11.305091
vn -0.770602 -0.385583 0.328004
v -4.750977 -15.426701 21.808746
vn -0.932028 -0.361649 -0.023109
v -5.938778 -12.944660 16.322060
vn 0.006539 -0.826590 -0.562766
v 3.392745 -12.955271 11.458535
vn -0.003664 -0.763632 -0.638057
v 0.015841 -12.949991 11.381813
vn 0.889014 -0.432569 -0.150127
v 6.458740 -12.756435 14.046495
vn -0.791770 -0.007626 0.610772
v -4.401680 -8.142296 23.341452
vn -0.165285 -0.165052 0.818117
v -0.729155 -12.670114 26.515003
vn 0.278605 0.079413 0.957117
v 2.104865 -7.431486 25.734575
vn -0.334911 -0.210380 -0.918463
v 1.190013 -9.865193 10.097948
vn 0.810776 -0.356406 -0.464346
v 6.132221 -9.185950 2.713418
vn 0.849895 -0.394487 -0.307236
v 6.295481 -10.971193 8.379957
vn -0.938416 -0.271331 -0.148101
v -6.066505 -11.009999 10.107650
vn -0.944804 -0.181013 -0.273092
v -6.194232 -9.075338 3.893240
vn 0.572997 -0.664965 -0.479057
v -2.446582 -9.622916 2.295331
vn -0.762568 0.117205 -0.636201
v 2.848416 -8.491546 1.205650
vn -0.378015 -0.354692 -0.599484
v 3.120581 -10.723408 6.332093
vn -0.997336 0.042255 0.059460
v -6.355943 -8.374219 15.521944
vn -0.971070 -0.069379 -0.106816
v -6.275087 -8.724779 9.707592
vn 0.431626 0.858399 -0.277220
v -3.107289 -6.876743 3.924760
vn 0.790129 0.331984 -0.515250
v 5.292338 -6.712279 10.700735
vn 0.839571 -0.050292 -0.332689
v 5.875539 -9.734357 12.373615
vn -0.722846 0.312243 -0.616439
v -4.893868 -6.225584 10.040612
vn -0.214833 0.327754 -0.920013
v -5.109915 -9.342853 0.723921
vn 0.984938 -0.006267 0.172796
v 5.842465 -3.990474 19.222227
vn 0.659849 0.017244 0.751201
v 3.509394 -3.033521 24.781113
vn 0.805801 -0.124458 0.451962
v 4.493598 -8.496454 22.812006
vn 0.469227 0.048328 0.854159
v 2.807129 -5.232503 25.257843
vn 0.887533 0.162859 -0.171227
v 5.567401 -5.351377 14.961481
vn 0.227609 0.060802 -0.716857
v 3.241175 -8.288736 10.399342
vn -0.014344 -0.105388 -0.994328
v -0.856043 -2.648082 8.081961
vn -0.014106 -0.403031 -0.853837
v -2.108553 -7.796397 9.693525
vn 0.387892 0.113298 -0.754789
v 2.218148 -4.680181 9.391348
vn -0.211339 -0.008952 0.977372
v -0.918754 -2.835133 26.110855
vn 0.224255 0.004146 0.864286
v 1.295320 -2.934327 25.445984
vn -0.897571 -0.018472 0.440482
v -5.288923 1.079920 22.343342
vn -0.947454 0.011891 0.249971
v -5.822433 -3.647150 18.932644
vn -0.994195 -0.021046 -0.021985
v -6.477388 -1.843374 15.332228
vn -0.991054 -0.084346 -0.103430
v -6.598833 4.687470 15.142512
vn -0.856950 0.113948 -0.359934
v -5.746350 -0.769057 12.591562
vn 0.523114 0.160591 -0.740920
v 4.526194 -1.431674 10.050585
vn 0.120878 -0.058095 -0.980459
v 1.452003 0.600424 8.741198
vn 0.256099 -0.010803 -0.966590
v 3.760049 3.848930 9.400434
vn -0.364786 -0.007272 -0.931063
v -3.905534 3.748132 9.298057
vn -0.189565 -0.056330 -0.962695
v -2.380789 0.550025 8.690008
vn 0.994683 -0.043583 -0.093306
v 6.896020 5.426373 15.045852
vn 0.892406 0.144201 -0.304278
v 6.094179 -0.642953 12.873293
vn -0.399551 0.066784 0.886877
v -2.259200 2.656332 25.334469
vn -0.587762 0.142520 0.796382
v -3.599646 8.147797 24.558081
vn 0.864646 0.176478 0.470364
v 5.118790 9.984397 22.802834
vn 0.762247 0.096861 0.610783
v 4.314092 3.475438 23.791973
vn 0.924792 0.085106 0.321580
v 5.480628 2.996962 21.012531
vn 0.353059 0.287148 0.890447
v 1.741213 11.019891 24.729279
vn 0.506454 0.152196 0.820824
v 2.625304 3.993185 24.755196
vn 0.070860 0.139098 0.933909
v 0.411229 4.092379 25.420067
vn -0.117351 0.214834 0.843414
v -0.929217 9.583843 24.643681
f 76//76 75//75 74//74
f 75//75 73//73 74//74
f 76//76 72//72 75//75
f 75//75 72//72 71//71
f 71//71 73//73 75//75
f 72//72 76//76 70//70
f 69//69 70//70 76//76
f 76//76 76//76 69//69
f 70//70 69//69 77//77
f 74//74 78//78 74//74
f 76//76 74//74 78//78
f 78//78 79//79 76//76
f 74//74 76//76 76//76
f 79//79 77//77 79//79
f 69//69 79//79 77//77
f 77//77 77//77 69//69
f 79//79 69//69 76//76
f 80//80 72//72 81//81
f 70//70 81//81 72//72
f 72//72 72//72 70//70
f 81//81 70//70 77//77
f 82//82 71//71 72//72
f 82//82 72//72 80//80
f 83//83 79//79 83//83
f 78//78 83//83 79//79
f 79//79 79//79 78//78
f 83//83 78//78 74//74
f 74//74 73//73 84//84
f 85//85 84//84 73//73
f 73//73 73//73 85//85
f 84//84 85//85 85//85
f 85//85 83//83 84//84
f 74//74 84//84 83//83
f 83//83 83//83 74//74
f 84//84 74//74 74//74
f 85//85 73//73 71//71
f 86//86 80//80 86//86
f 81//81 86//86 80//80
f 80//80 80//80 81//81
f 86//86 81//81 77//77
f 87//87 88//88 87//87
f 80//80 87//87 88//88
f 88//88 82//82 80//80
f 87//87 80//80 80//80
f 79//79 89//89 79//79
f 77//77 79//79 89//89
f 89//89 90//90 77//77
f 79//79 77//77 77//77
f 91//91 77//77 90//90
f 92//92 87//87 93//93
f 80//80 93//93 87//87
f 87//87 87//87 80//80
f 93//93 80//80 80//80
f 86//86 92//92 86//86
f 93//93 86//86 92//92
f 92//92 92//92 93//93
f 86//86 93//93 80//80
f 79//79 94//94 89//89
f 95//95 89//89 94//94
f 94//94 94//94 95//95
f 89//89 95//95 90//90
f 79//79 83//83 94//94
f 77//77 91//91 96//96
f 97//97 98//98 97//97
f 88//88 97//97 98//98
f 98//98 82//82 88//88
f 97//97 88//88 87//87
f 96//96 99//99 77//77
f 90//90 100//100 91//91
f 101//101 71//71 82//82
f 101//101 102//102 101//101
f 103//103 101//101 102//102
f 102//102 102//102 103//103
f 101//101 103//103 71//71
f 71//71 103//103 71//71
f 104//104 71//71 103//103
f 103//103 102//102 104//104
f 71//71 104//104 85//85
f 82//82 98//98 82//82
f 105//105 82//82 98//98
f 98//98 97//97 105//105
f 82//82 105//105 101//101
f 92//92 86//86 92//92
f 106//106 92//92 86//86
f 86//86 86//86 106//106
f 92//92 106//106 97//97
f 96//96 91//91 100//100
f 96//96 100//100 90//90
f 87//87 92//92 97//97
f 107//107 86//86 108//108
f 77//77 108//108 86//86
f 86//86 86//86 77//77
f 108//108 77//77 77//77
f 77//77 99//99 108//108
f 107//107 108//108 99//99
f 99//99 99//99 107//107
f 108//108 107//107 107//107
f 90//90 99//99 96//96
f 90//90 95//95 90//90
f 99//99 90//90 95//95
f 95//95 94//94 99//99
f 90//90 99//99 99//99
f 107//107 109//109 107//107
f 106//106 107//107 109//109
f 109//109 97//97 106//106
f 107//107 106//106 86//86
f 83//83 85//85 110//110
f 110//110 85//85 111//111
f 104//104 111//111 85//85
f 85//85 85//85 104//104
f 111//111 104//104 102//102
f 112//112 113//113 112//112
f 83//83 112//112 113//113
f 113//113 94//94 83//83
f 112//112 83//83 83//83
f 110//110 112//112 83//83
f 94//94 114//114 94//94
f 116//116 94//94 114//114
f 114//114 115//115 116//116
f 94//94 116//116 99//99
f 115//115 114//114 115//115
f 113//113 115//115 114//114
f 114//114 94//94 113//113
f 115//115 113//113 112//112
f 97//97 109//109 117//117
f 118//118 117//117 109//109
f 109//109 107//107 118//118
f 117//117 118//118 119//119
f 120//120 121//121 120//120
f 99//99 120//120 121//121
f 121//121 107//107 99//99
f 120//120 99//99 99//99
f 120//120 99//99 120//120
f 116//116 120//120 99//99
f 99//99 99//99 116//116
f 120//120 116//116 115//115
f 119//119 122//122 117//117
f 123//123 117//117 122//122
f 122//122 122//122 123//123
f 117//117 123//123 97//97
f 101//101 105//105 101//101
f 123//123 101//101 105//105
f 105//105 97//97 123//123
f 101//101 123//123 122//122
f 107//107 121//121 118//118
f 119//119 118//118 121//121
f 121//121 120//120 119//119
f 118//118 119//119 119//119
f 110//110 124//124 110//110
f 112//112 110//110 124//124
f 124//124 125//125 112//112
f 110//110 112//112 112//112
f 126//126 127//127 128//128
f 101//101 128//128 127//127
f 127//127 102//102 101//101
f 128//128 101//101 101//101
f 122//122 126//126 122//122
f 128//128 122//122 126//126
f 126//126 126//126 128//128
f 122//122 128//128 101//101
f 129//129 130//130 129//129
f 127//127 129//129 130//130
f 130//130 102//102 127//127
f 129//129 127//127 126//126
f 102//102 130//130 111//111
f 131//131 111//111 130//130
f 130//130 129//129 131//131
f 111//111 131//131 110//110
f 129//129 132//132 131//131
f 124//124 131//131 132//132
f 132//132 125//125 124//124
f 131//131 124//124 110//110
f 120//120 68//68 119//119
f 68//68 67//67 68//68
f 119//119 68//68 67//67
f 67//67 66//66 119//119
f 68//68 119//119 119//119
f 65//65 112//112 125//125
f 65//65 115//115 112//112
f 120//120 115//115 64//64
f 68//68 120//120 63//63
f 64//64 63//63 120//120
f 120//120 120//120 64//64
f 63//63 64//64 64//64
f 62//62 122//122 119//119
f 61//61 64//64 115//115
f 115//115 65//65 61//61
f 60//60 119//119 66//66
f 119//119 60//60 119//119
f 59//59 119//119 60//60
f 60//60 60//60 59//59
f 119//119 59//59 62//62
f 66//66 67//67 58//58
f 57//57 58//58 67//67
f 67//67 68//68 57//57
f 58//58 57//57 56//56
f 126//126 122//122 55//55
f 122//122 62//62 122//122
f 54//54 122//122 62//62
f 62//62 62//62 54//54
f 122//122 54//54 55//55
f 64//64 53//53 63//63
f 68//68 63//63 53//53
f 53//53 52//52 68//68
f 63//63 68//68 68//68
f 66//66 58//58 66//66
f 51//51 66//66 58//58
f 58//58 56//56 51//51
f 66//66 51//51 60//60
f 56//56 57//57 50//50
f 49//49 50//50 57//57
f 57//57 68//68 49//49
f 50//50 49//49 49//49
f 68//68 52//52 49//49
f 65//65 125//125 48//48
f 47//47 48//48 125//125
f 125//125 125//125 47//47
f 48//48 47//47 46//46
f 65//65 48//48 65//65
f 61//61 65//65 48//48
f 48//48 46//46 61//61
f 65//65 61//61 61//61
f 64//64 45//45 53//53
f 52//52 53//53 45//45
f 45//45 45//45 52//52
f 53//53 52//52 52//52
f 64//64 61//61 45//45
f 44//44 43//43 44//44
f 132//132 44//44 43//43
f 43//43 125//125 132//132
f 44//44 132//132 129//129
f 46//46 47//47 42//42
f 43//43 42//42 47//47
f 47//47 125//125 43//43
f 42//42 43//43 44//44
f 41//41 126//126 55//55
f 41//41 129//129 126//126
f 40//40 39//39 40//40
f 59//59 40//40 39//39
f 39//39 62//62 59//59
f 40//40 59//59 60//60
f 38//38 37//37 36//36
f 51//51 36//36 37//37
f 37//37 60//60 51//51
f 36//36 51//51 56//56
f 38//38 36//36 35//35
f 50//50 35//35 36//36
f 36//36 56//56 50//50
f 35//35 50//50 49//49
f 41//41 34//34 129//129
f 129//129 34//34 44//44
f 33//33 61//61 46//46
f 45//45 61//61 32//32
f 33//33 32//32 61//61
f 61//61 61//61 33//33
f 32//32 33//33 33//33
f 31//31 52//52 45//45
f 52//52 31//31 30//30
f 55//55 54//54 29//29
f 28//28 29//29 54//54
f 54//54 62//62 28//28
f 29//29 28//28 27//27
f 62//62 39//39 28//28
f 27//27 28//28 39//39
f 39//39 40//40 27//27
f 28//28 27//27 27//27
f 41//41 55//55 38//38
f 44//44 33//33 42//42
f 46//46 42//42 33//33
f 33//33 33//33 46//46
f 42//42 46//46 46//46
f 41//41 38//38 34//34
f 27//27 26//26 29//29
f 55//55 29//29 26//26
f 26//26 38//38 55//55
f 29//29 55//55 55//55
f 49//49 25//25 24//24
f 32//32 24//24 25//25
f 25//25 45//45 32//32
f 24//24 32//32 33//33
f 49//49 24//24 35//35
f 23//23 35//35 24//24
f 24//24 33//33 23//23
f 35//35 23//23 38//38
f 38//38 26//26 37//37
f 60//60 37//37 26//26
f 26//26 27//27 60//60
f 37//37 60//60 60//60
f 60//60 27//27 40//40
f 22//22 52//52 30//30
f 52//52 22//22 52//52
f 21//21 52//52 22//22
f 22//22 22//22 21//21
f 52//52 21//21 49//49
f 22//22 31//31 45//45
f 31//31 22//22 30//30
f 49//49 21//21 25//25
f 45//45 25//25 21//21
f 21//21 22//22 45//45
f 25//25 45//45 45//45
f 38//38 23//23 38//38
f 20//20 38//38 23//23
f 23//23 33//33 20//20
f 38//38 20//20 19//19
f 38//38 19//19 34//34
f 18//18 34//34 17//17
f 19//19 17//17 34//34
f 34//34 34//34 19//19
f 17//17 19//19 19//19
f 16//16 15//15 14//14
f 34//34 14//14 15//15
f 15//15 44//44 34//34
f 14//14 34//34 34//34
f 18//18 16//16 18//18
f 14//14 18//18 16//16
f 16//16 16//16 14//14
f 18//18 14//14 34//34
f 44//44 13//13 44//44
f 11//11 44//44 13//13
f 13//13 12//12 11//11
f 44//44 11//11 33//33
f 16//16 10//10 15//15
f 13//13 15//15 10//10
f 10//10 12//12 13//13
f 15//15 13//13 44//44
f 19//19 20//20 9//9
f 8//8 9//9 20//20
f 20//20 33//33 8//8
f 9//9 8//8 7//7
f 7//7 8//8 7//7
f 11//11 7//7 8//8
f 8//8 33//33 11//11
f 7//7 11//11 12//12
f 19//19 6//6 17//17
f 4//4 17//17 6//6
f 6//6 5//5 4//4
f 17//17 4//4 18//18
f 19//19 9//9 6//6
f 3//3 6//6 9//9
f 9//9 7//7 3//3
f 6//6 3//3 5//5
f 16//16 18//18 16//16
f 4//4 16//16 18//18
f 18//18 18//18 4//4
f 16//16 4//4 5//5
f 2//2 12//12 2//2
f 10//10 2//2 12//12
f 12//12 12//12 10//10
f 2//2 10//10 16//16
f 16//16 5//5 16//16
f 1//1 16//16 5//5
f 5//5 5//5 1//1
f 16//16 1//1 2//2
f 2//2 7//7 12//12
f 2//2 1//1 2//2
f 3//3 2//2 1//1
f 1//1 5//5 3//3
f 2//2 3//3 7//7
