vn 0.000000 0.000000 1.000000
v 0.000000 1.000000 0.000000
vn 0.000000 0.000000 1.000000
v 0.250000 0.875000 0.000000
vn 0.000000 0.000000 1.000000
v -0.250000 0.750000 0.000000
vn 0.000000 0.000000 1.000000
v 0.031250 0.656250 0.000000
vn 0.000000 0.000000 1.000000
v 0.500000 0.750000 0.000000
vn 0.000000 0.000000 1.000000
v 0.750000 0.625000 0.000000
vn 0.000000 0.000000 1.000000
v -0.500000 0.500000 0.000000
vn 0.000000 0.000000 1.000000
v -0.187500 0.437500 0.000000
vn 0.000000 0.000000 1.000000
v 0.250000 0.500000 0.000000
vn 0.000000 0.000000 1.000000
v 0.541667 0.416667 0.000000
vn 0.000000 0.000000 1.000000
v 1.000000 0.500000 0.000000
vn 0.000000 0.000000 1.000000
v 1.250000 0.375000 0.000000
vn 0.000000 0.000000 1.000000
v -0.750000 0.250000 0.000000
vn 0.000000 0.000000 1.000000
v -0.406250 0.218750 0.000000
vn 0.000000 0.000000 1.000000
v 0.000000 0.250000 0.000000
vn 0.000000 0.000000 1.000000
v 0.333333 0.208333 0.000000
vn 0.000000 0.000000 1.000000
v 0.750000 0.250000 0.000000
vn 0.000000 0.000000 1.000000
v 1.062500 0.187500 0.000000
vn 0.000000 0.000000 1.000000
v 1.500000 0.250000 0.000000
vn 0.000000 0.000000 1.000000
v 1.750000 0.125000 0.000000
vn 0.000000 0.000000 1.000000
v -1.000000 0.000000 0.000000
vn 0.000000 0.000000 1.000000
v -0.625000 0.000000 0.000000
vn 0.000000 0.000000 1.000000
v -0.250000 0.000000 0.000000
vn 0.000000 0.000000 1.000000
v 0.125000 0.000000 0.000000
vn 0.000000 0.000000 1.000000
v 0.500000 0.000000 0.000000
vn 0.000000 0.000000 1.000000
v 0.875000 0.000000 0.000000
vn 0.000000 0.000000 1.000000
v 1.250000 0.000000 0.000000
vn 0.000000 0.000000 1.000000
v 1.625000 0.000000 0.000000
vn 0.000000 0.000000 1.000000
v 2.000000 0.000000 0.000000
f 1//1 3//3 4//4
f 2//2 4//4 5//5
f 28//28 20//20 19//19
f 27//27 19//19 18//18
f 26//26 18//18 17//17
f 25//25 17//17 16//16
f 24//24 16//16 15//15
f 23//23 15//15 14//14
f 22//22 14//14 13//13
f 3//3 7//7 8//8
f 4//4 8//8 9//9
f 5//5 9//9 10//10
f 6//6 10//10 11//11
f 18//18 12//12 11//11
f 17//17 11//11 10//10
f 16//16 10//10 9//9
f 15//15 9//9 8//8
f 14//14 8//8 7//7
f 7//7 13//13 14//14
f 8//8 14//14 15//15
f 9//9 15//15 16//16
f 10//10 16//16 17//17
f 11//11 17//17 18//18
f 12//12 18//18 19//19
f 10//10 6//6 5//5
f 9//9 5//5 4//4
f 8//8 4//4 3//3
f 13//13 21//21 22//22
f 14//14 22//22 23//23
f 15//15 23//23 24//24
f 16//16 24//24 25//25
f 17//17 25//25 26//26
f 18//18 26//26 27//27
f 19//19 27//27 28//28
f 20//20 28//28 29//29
f 4//4 2//2 1//1
