####
#
# OBJ File Generated by Meshlab
#
####
# Object pallas_250.obj
#
# Vertices: 127
# Faces: 250
#
####
vn 0.336484 -0.939848 0.058851
v 1.680426 -20.888235 21.338577
vn 0.258216 -0.794010 -0.550339
v 1.051267 -17.604158 17.715195
vn 0.715323 0.015405 0.698624
v 4.141391 -14.887774 26.139425
vn 0.773678 -0.549837 0.314805
v 4.119407 -18.725376 24.070629
vn 0.082032 0.179849 0.980268
v 1.132696 -9.856561 26.280930
vn 0.879922 -0.457741 -0.127318
v 4.863678 -14.775103 19.810905
vn 0.905453 0.378035 -0.192988
v 6.446987 -8.402474 5.214625
vn 0.991137 -0.126270 0.041275
v 6.601956 -11.502834 14.845052
vn 0.966527 -0.068527 -0.247244
v 6.597043 -0.284118 13.903006
vn 0.390857 0.584781 -0.710817
v 3.962139 -6.581145 9.523705
vn 0.364401 0.129314 -0.922220
v 2.985960 3.021214 8.960925
vn 0.945840 0.226504 -0.232556
v 5.900905 -7.330461 12.079096
vn 0.439633 0.432624 0.787121
v 2.212181 12.611583 23.664534
vn -0.388799 0.448023 0.805053
v -0.916887 14.577837 23.456266
vn 0.802766 0.177236 0.569345
v 5.118790 9.984397 22.802834
vn -0.971983 0.209369 0.106833
v 1.158045 14.482778 7.386146
vn -0.594905 -0.160248 -0.787660
v 1.190013 -9.865193 10.097948
vn -0.270958 0.907511 -0.320943
v 3.280854 -6.885312 3.486881
vn 0.799332 -0.381057 -0.464612
v 5.607396 -9.676887 2.657129
vn 0.952692 -0.050558 -0.299704
v 6.593266 9.977386 8.852381
vn 0.431482 -0.250457 -0.866658
v 4.392091 4.716065 9.215899
vn -0.626273 -0.587183 -0.512833
v 1.771115 12.758484 6.413208
vn -0.835943 0.265793 -0.480160
v 2.039882 14.270844 0.804532
vn 0.911011 -0.234727 -0.339060
v 4.907962 13.241599 6.671731
vn -0.426634 0.475032 -0.769628
v 0.784119 9.165347 12.545514
vn 0.760136 0.558401 0.332237
v 1.867017 15.507166 21.604416
vn 0.857267 0.511765 0.056486
v 6.231809 13.243381 15.225756
vn -0.888708 0.458456 0.004095
v 1.610855 13.249010 10.909580
vn 0.917558 -0.029455 0.396509
v 4.701115 -4.578977 21.952835
vn 0.649446 0.063281 0.757770
v 2.999069 -6.260497 24.551588
vn 0.156767 0.177355 0.971581
v 1.373375 8.471944 25.154312
vn 0.990951 -0.001334 0.134219
v 5.973999 -5.816436 17.238829
vn 0.815800 -0.041869 0.576817
v 4.492671 0.825577 23.444750
vn 0.484563 0.854853 -0.185539
v 0.960960 30.646397 6.683779
vn 0.774872 -0.231923 -0.588035
v 1.766994 26.066755 6.517612
vn 0.854050 -0.418877 -0.308448
v 2.380493 20.188568 13.156273
vn 0.052304 -0.102523 -0.993355
v 0.720615 -3.298911 8.246162
vn 0.974978 -0.049850 0.216642
v 5.935257 0.760650 19.773928
vn 0.664509 -0.707960 -0.239208
v 5.435528 -13.610065 13.548359
vn -0.864276 -0.498112 -0.070074
v 2.607763 -9.695628 3.064386
vn 0.097865 -0.850992 -0.515981
v 1.559051 -16.336735 14.547271
vn 0.986759 -0.103370 -0.124987
v 6.456969 4.830386 14.732330
vn 0.996544 0.023753 0.079597
v 6.900618 8.828260 15.767713
vn 0.687252 0.636091 0.350817
v 4.201877 14.026724 20.374186
vn 0.160796 0.919564 0.358535
v 3.794212 15.215645 10.013218
vn 0.170364 0.913236 -0.370103
v 3.728340 15.417516 1.954439
vn 0.760338 0.643470 0.088504
v 4.488962 15.923973 7.515880
vn -0.363280 0.922101 0.133260
v 2.329717 16.633602 8.023271
vn -0.322794 0.432369 -0.841939
v 2.984650 -8.379621 0.636610
vn -0.150499 -0.929743 -0.336046
v 4.311956 -12.135435 0.815655
vn -0.646513 0.154811 -0.747030
v 1.341954 6.253430 10.190178
vn -0.029063 0.987288 -0.156261
v 3.705319 14.961618 15.033888
vn 0.139271 -0.813159 -0.565133
v -0.048179 15.981974 17.042076
vn 0.005034 0.887889 -0.460031
v 0.027022 15.013152 16.725052
vn -0.499103 -0.471309 -0.727162
v 2.213696 10.729773 0.358092
vn -0.188971 -0.899328 0.394334
v 2.638309 12.759743 2.859454
vn 0.707695 -0.560384 0.430276
v 5.724263 11.192672 1.027680
vn 0.775180 0.251907 -0.579344
v 4.968920 14.074764 0.888526
vn 0.963524 -0.008873 0.267476
v 5.267467 -10.738495 21.675011
vn 0.365806 -0.001258 0.930690
v 1.503941 -0.785940 25.807358
vn 0.737541 0.512893 0.439288
v 1.740792 23.280783 13.202701
vn -0.260681 -0.742701 -0.616799
v -0.921192 18.946404 12.237360
vn -0.994394 0.044099 0.096102
v -6.270188 -9.278952 16.805532
vn -0.961506 -0.273307 0.028447
v -5.188198 -14.059001 20.002682
vn -0.141540 -0.769140 0.623209
v -1.712595 -19.030077 26.190622
vn -0.693799 -0.669835 0.264508
v -3.774146 -18.692677 24.268318
vn -0.612210 -0.779220 -0.134217
v -2.973627 -19.884356 21.665194
vn -0.604928 0.193865 0.772320
v -3.217442 -10.082680 24.876900
vn -0.013595 -0.936578 -0.350195
v 0.003703 -21.772459 20.474541
vn -0.893653 -0.439168 -0.092282
v -6.309462 -12.236971 13.407232
vn -0.919197 0.385253 -0.081589
v -6.524312 -8.147796 9.300278
vn 0.570436 -0.818483 0.068469
v -2.894172 -10.202238 3.707531
vn -0.726344 0.460932 -0.509869
v -4.893868 -6.225584 10.040612
vn -0.283121 -0.065502 -0.956845
v -1.768517 -2.582541 8.353840
vn -0.872565 -0.015403 0.488256
v -4.927319 1.793847 22.843658
vn 0.342075 -0.358297 -0.868682
v -1.593144 -11.241842 10.599877
vn -0.455492 0.540096 -0.707689
v -4.923977 -8.123179 0.330519
vn 0.023586 0.665414 0.746102
v -0.405835 16.642315 22.319843
vn 0.114705 -0.980967 0.156675
v -3.436941 12.745670 2.969093
vn 0.857341 -0.127093 -0.498813
v -1.680311 13.417645 0.395027
vn 0.200943 0.916113 -0.346927
v -2.576450 15.688635 2.561115
vn -0.961510 -0.016705 0.274261
v -5.562854 -4.621231 19.336151
vn -0.997354 -0.044721 -0.057311
v -6.598833 4.687470 15.142512
vn 0.186747 0.966418 -0.176528
v -3.515519 -6.785973 3.997083
vn -0.842227 -0.528648 -0.105755
v -5.660193 -9.708370 3.236254
vn 0.270675 0.910664 -0.312133
v -2.918819 14.632179 14.186839
vn -0.800310 -0.406905 -0.440377
v -4.954413 13.235558 7.393537
vn 0.348749 -0.555960 -0.754508
v -2.247696 11.875261 6.572062
vn 0.989099 -0.023125 -0.145427
v -1.231870 13.722953 7.264007
vn -0.162513 0.016123 0.986575
v -0.867835 -4.500547 25.885849
vn 0.835959 0.527834 0.150215
v -1.613330 13.309618 11.471422
vn 0.572985 0.217343 -0.790222
v -1.291761 6.283181 10.081335
vn -0.970144 0.239354 0.039129
v -6.885649 11.364739 14.086350
vn -0.657574 -0.751178 -0.057686
v -5.420763 -11.617001 0.653183
vn 0.574731 0.467414 -0.671720
v -0.859941 10.738250 13.260812
vn -0.799178 -0.004647 0.601076
v -3.836122 -5.248088 23.431774
vn 0.957099 0.287566 0.035602
v -1.964908 -9.103883 7.938510
vn -0.057200 -0.759817 -0.647616
v 3.392745 -12.955271 11.458535
vn -0.960668 -0.052920 0.272611
v -5.833311 -0.342093 20.531057
vn -0.902760 0.419288 0.096029
v -2.100826 15.783349 21.120466
vn -0.859161 0.502001 -0.099184
v -1.645787 29.789555 6.691165
vn -0.998841 -0.043371 -0.020894
v -6.484543 -3.381405 14.613516
vn -0.165086 -0.841410 -0.514563
v -4.423919 -12.973643 11.369237
vn -0.516932 -0.770589 -0.372792
v -3.200415 -16.589825 17.465637
vn 0.226997 -0.275868 0.934007
v 1.670499 -17.485565 27.078690
vn -0.901172 -0.101639 -0.421376
v -6.240230 8.595031 9.204009
vn -0.805937 0.437097 0.399263
v -4.770322 12.907134 21.491930
vn -0.758097 0.652079 0.009115
v -5.225234 14.438251 9.271343
vn -0.588368 0.144532 0.795571
v -3.599646 8.147797 24.558081
vn -0.953250 0.059562 0.296256
v -6.150826 9.408488 19.501774
vn -0.652272 0.741860 0.155517
v -4.688183 14.450736 16.612204
vn -0.281667 0.640197 -0.714711
v 0.843944 12.448030 14.237867
vn -0.661796 -0.187317 -0.725905
v -4.467003 3.246335 10.244186
vn -0.139122 -0.280951 -0.949585
v -4.223266 7.429422 7.948735
vn 0.071780 0.981433 0.177871
v -2.909204 16.990097 8.066285
vn 0.007477 0.060034 -0.998168
v -2.375081 4.635948 9.081226
vn 0.644473 -0.446533 -0.620696
v -2.705999 -12.065705 0.414509
vn -0.356061 -0.200466 -0.912707
v -1.095648 26.556654 5.585925
vn -0.676894 -0.023130 0.735717
v -4.054410 -15.059269 26.918936
vn 0.912193 0.263858 -0.313501
v -2.302225 -8.583091 1.664716
vn -0.244417 -0.907627 0.341282
v -3.336949 9.991195 0.937603
vn -0.992033 0.062707 0.109266
v -5.072139 14.038201 2.558743
vn -0.590897 0.403937 -0.698338
v -5.836682 13.103935 0.042309
vn -0.933218 0.069674 0.352492
v -4.871318 -11.504560 22.983629
vn -0.354779 0.004683 0.934938
v -1.403806 0.251465 25.919127
vn -0.438369 0.658546 0.611678
v -1.083490 24.738194 12.411172
vn -0.994999 -0.041153 -0.091018
v -2.360656 23.944248 9.873284
# 127 vertices, 0 vertices normals

f 1//1 4//4 65//65
f 66//66 1//1 65//65
f 59//59 6//6 8//8
f 30//30 3//3 59//59
f 30//30 5//5 3//3
f 4//4 105//105 65//65
f 1//1 2//2 6//6
f 6//6 4//4 1//1
f 59//59 3//3 4//4
f 4//4 6//6 59//59
f 4//4 3//3 105//105
f 119//119 105//105 5//5
f 1//1 69//69 2//2
f 39//39 8//8 6//6
f 39//39 6//6 2//2
f 18//18 19//19 49//49
f 19//19 39//39 98//98
f 19//19 7//7 39//39
f 7//7 18//18 10//10
f 39//39 41//41 98//98
f 11//11 9//9 12//12
f 10//10 11//11 12//12
f 37//37 10//10 17//17
f 17//17 98//98 76//76
f 18//18 7//7 19//19
f 44//44 52//52 26//26
f 13//13 26//26 78//78
f 44//44 26//26 13//13
f 78//78 14//14 13//13
f 34//34 126//126 61//61
f 61//61 36//36 35//35
f 23//23 56//56 22//22
f 24//24 56//56 58//58
f 15//15 33//33 38//38
f 45//45 16//16 28//28
f 27//27 24//24 45//45
f 52//52 45//45 28//28
f 21//21 22//22 24//24
f 20//20 42//42 21//21
f 20//20 43//43 42//42
f 18//18 40//40 17//17
f 39//39 2//2 41//41
f 40//40 19//19 98//98
f 50//50 49//49 19//19
f 40//40 50//50 19//19
f 24//24 20//20 21//21
f 56//56 24//24 22//22
f 22//22 16//16 23//23
f 16//16 48//48 23//23
f 48//48 47//47 46//46
f 33//33 15//15 60//60
f 31//31 60//60 15//15
f 28//28 51//51 25//25
f 52//52 53//53 26//26
f 20//20 24//24 27//27
f 16//16 51//51 28//28
f 22//22 51//51 16//16
f 90//90 30//30 60//60
f 8//8 39//39 7//7
f 18//18 17//17 10//10
f 15//15 13//13 31//31
f 33//33 30//30 29//29
f 38//38 29//29 32//32
f 33//33 29//29 38//38
f 33//33 60//60 30//30
f 61//61 35//35 34//34
f 36//36 26//26 53//53
f 36//36 61//61 26//26
f 36//36 53//53 62//62
f 61//61 78//78 26//26
f 44//44 27//27 52//52
f 42//42 9//9 21//21
f 21//21 9//9 11//11
f 38//38 42//42 43//43
f 9//9 38//38 32//32
f 10//10 37//37 11//11
f 38//38 9//9 42//42
f 32//32 12//12 9//9
f 32//32 59//59 8//8
f 8//8 12//12 32//32
f 12//12 8//8 7//7
f 10//10 12//12 7//7
f 17//17 40//40 98//98
f 49//49 40//40 18//18
f 49//49 50//50 40//40
f 43//43 15//15 38//38
f 44//44 15//15 27//27
f 15//15 43//43 27//27
f 58//58 46//46 47//47
f 43//43 20//20 27//27
f 25//25 112//112 28//28
f 52//52 28//28 112//112
f 44//44 13//13 15//15
f 24//24 58//58 47//47
f 52//52 112//112 54//54
f 45//45 52//52 27//27
f 48//48 46//46 23//23
f 45//45 47//47 48//48
f 24//24 47//47 45//45
f 45//45 48//48 16//16
f 51//51 21//21 11//11
f 22//22 21//21 51//51
f 51//51 92//92 25//25
f 62//62 35//35 36//36
f 52//52 100//100 53//53
f 61//61 126//126 78//78
f 14//14 31//31 13//13
f 3//3 5//5 105//105
f 55//55 57//57 56//56
f 58//58 56//56 57//57
f 23//23 58//58 55//55
f 58//58 23//23 46//46
f 55//55 58//58 57//57
f 55//55 56//56 23//23
f 32//32 29//29 59//59
f 59//59 29//29 30//30
f 5//5 30//30 90//90
f 60//60 31//31 125//125
f 66//66 67//67 1//1
f 67//67 69//69 1//1
f 67//67 104//104 2//2
f 64//64 124//124 63//63
f 119//119 66//66 65//65
f 124//124 64//64 119//119
f 67//67 64//64 104//104
f 66//66 64//64 67//67
f 119//119 64//64 66//66
f 5//5 68//68 119//119
f 68//68 124//124 119//119
f 68//68 5//5 90//90
f 63//63 124//124 82//82
f 67//67 2//2 69//69
f 71//71 63//63 73//73
f 70//70 103//103 104//104
f 71//71 73//73 84//84
f 64//64 70//70 104//104
f 73//73 63//63 102//102
f 113//113 73//73 83//83
f 102//102 83//83 73//73
f 37//37 17//17 76//76
f 37//37 76//76 74//74
f 116//116 92//92 11//11
f 92//92 51//51 11//11
f 84//84 120//120 77//77
f 84//84 77//77 71//71
f 85//85 71//71 77//77
f 117//117 72//72 94//94
f 120//120 72//72 117//117
f 77//77 94//94 85//85
f 111//111 14//14 100//100
f 100//100 14//14 78//78
f 31//31 109//109 125//125
f 81//81 89//89 80//80
f 122//122 115//115 81//81
f 81//81 123//123 122//122
f 87//87 114//114 106//106
f 110//110 75//75 109//109
f 88//88 89//89 92//92
f 114//114 87//87 88//88
f 96//96 82//82 124//124
f 110//110 83//83 75//75
f 41//41 2//2 104//104
f 97//97 84//84 73//73
f 103//103 72//72 76//76
f 72//72 103//103 85//85
f 120//120 84//84 97//97
f 85//85 94//94 72//72
f 86//86 108//108 111//111
f 79//79 88//88 87//87
f 89//89 88//88 79//79
f 115//115 89//89 81//81
f 108//108 122//122 87//87
f 79//79 87//87 122//122
f 68//68 90//90 96//96
f 125//125 109//109 75//75
f 86//86 95//95 91//91
f 95//95 92//92 91//91
f 25//25 92//92 95//95
f 111//111 100//100 86//86
f 63//63 70//70 64//64
f 111//111 93//93 107//107
f 112//112 95//95 86//86
f 113//113 114//114 116//116
f 106//106 114//114 113//113
f 108//108 93//93 111//111
f 92//92 89//89 91//91
f 70//70 85//85 103//103
f 76//76 72//72 97//97
f 97//97 73//73 76//76
f 14//14 109//109 31//31
f 70//70 63//63 71//71
f 75//75 99//99 96//96
f 99//99 82//82 96//96
f 90//90 125//125 96//96
f 125//125 75//75 96//96
f 100//100 62//62 53//53
f 101//101 126//126 34//34
f 78//78 126//126 100//100
f 127//127 100//100 126//126
f 62//62 100//100 127//127
f 34//34 35//35 118//118
f 127//127 101//101 118//118
f 99//99 102//102 82//82
f 116//116 37//37 74//74
f 113//113 74//74 73//73
f 83//83 102//102 99//99
f 75//75 83//83 99//99
f 103//103 76//76 98//98
f 76//76 73//73 74//74
f 82//82 102//102 63//63
f 71//71 85//85 70//70
f 72//72 120//120 97//97
f 41//41 104//104 103//103
f 113//113 83//83 106//106
f 93//93 106//106 83//83
f 83//83 110//110 93//93
f 87//87 106//106 108//108
f 110//110 107//107 93//93
f 115//115 122//122 108//108
f 106//106 93//93 108//108
f 107//107 109//109 14//14
f 110//110 109//109 107//107
f 14//14 111//111 107//107
f 89//89 115//115 91//91
f 54//54 112//112 86//86
f 54//54 86//86 100//100
f 91//91 108//108 86//86
f 91//91 115//115 108//108
f 113//113 116//116 74//74
f 37//37 116//116 11//11
f 92//92 116//116 114//114
f 114//114 88//88 92//92
f 117//117 94//94 77//77
f 117//117 77//77 120//120
f 62//62 118//118 35//35
f 34//34 118//118 101//101
f 25//25 95//95 112//112
f 54//54 100//100 52//52
f 119//119 65//65 105//105
f 79//79 121//121 80//80
f 89//89 79//79 80//80
f 122//122 121//121 79//79
f 122//122 123//123 121//121
f 81//81 80//80 123//123
f 80//80 121//121 123//123
f 96//96 124//124 68//68
f 90//90 60//60 125//125
f 101//101 127//127 126//126
f 118//118 62//62 127//127
f 98//98 41//41 103//103
# 250 faces, 0 coords texture

# End of File
