####
#
# OBJ File Generated by Meshlab
#
####
# Object pallas_125.obj
#
# Vertices: 64
# Faces: 124
#
####
vn 0.278605 0.079413 0.957117
v 2.104865 -7.431486 25.734575
vn 0.790129 0.331984 -0.515250
v 5.292338 -6.712279 10.700735
vn -0.093242 0.607884 0.788532
v -0.278658 15.527287 23.391775
vn 0.864646 0.176478 0.470364
v 5.118790 9.984397 22.802834
vn -0.334911 -0.210380 -0.918463
v 1.190013 -9.865193 10.097948
vn -0.762569 0.117205 -0.636201
v 2.848416 -8.491546 1.205650
vn 0.810776 -0.356406 -0.464346
v 6.132221 -9.185950 2.713418
vn 0.866854 -0.117198 -0.484592
v 6.087533 11.771236 7.418609
vn 0.256099 -0.010803 -0.966590
v 3.760049 3.848930 9.400434
vn 0.783250 0.517311 0.344832
v 1.867017 15.507166 21.604416
vn 0.867380 0.488448 0.095237
v 6.231809 13.243381 15.225756
vn -0.884356 0.035872 -0.465433
v 1.335640 13.427572 6.526603
vn 0.353059 0.287148 0.890447
v 1.741213 11.019891 24.729279
vn 0.734819 -0.235760 -0.635970
v 1.766994 26.066755 6.517612
vn 0.927787 -0.299066 -0.223093
v 2.380493 20.188568 13.156273
vn 0.984938 -0.006267 0.172797
v 5.842465 -3.990474 19.222227
vn 0.889014 -0.432569 -0.150127
v 6.458740 -12.756435 14.046495
vn 0.211093 -0.820316 -0.531528
v 1.129525 -17.300377 16.418900
vn 0.994683 -0.043583 -0.093306
v 6.896020 5.426373 15.045852
vn 0.673099 0.633867 0.380986
v 4.201877 14.026724 20.374186
vn 0.206375 0.970887 -0.121606
v 3.293617 16.310272 7.321146
vn -0.451017 0.161783 -0.877730
v 1.279611 6.171773 10.271568
vn 0.078587 0.979284 -0.186619
v 3.705319 14.961618 15.033888
vn -0.343792 0.218850 -0.913188
v 3.247111 13.486563 1.257504
vn 0.951754 -0.266159 0.152724
v 5.477803 -13.959388 20.842899
vn 0.659849 0.017244 0.751201
v 3.509394 -3.033521 24.781113
vn 0.717179 0.534141 0.447603
v 1.740792 23.280783 13.202701
vn 0.056077 -0.730395 -0.680719
v -0.679222 16.715197 14.727341
vn -0.997336 0.042255 0.059460
v -6.355943 -8.374219 15.521944
vn -0.932028 -0.361649 -0.023109
v -5.938778 -12.944660 16.322060
vn 0.220838 -0.965245 -0.139759
v 0.740967 -21.369043 20.355219
vn -0.722846 0.312243 -0.616439
v -4.893868 -6.225584 10.040612
vn -0.014344 -0.105388 -0.994328
v -0.856043 -2.648082 8.081961
vn -0.810127 -0.327736 -0.486090
v -4.742103 13.262421 0.870335
vn 0.777248 0.313497 -0.545532
v -2.100637 14.238460 0.555162
vn -0.991054 -0.084346 -0.103430
v -6.598833 4.687470 15.142512
vn -0.944804 -0.181013 -0.273092
v -6.194232 -9.075338 3.893240
vn -0.850426 0.488101 -0.196297
v -5.325668 14.201487 8.165092
vn 0.761155 -0.405110 -0.506488
v -1.300210 13.244763 6.445957
vn -0.211340 -0.008952 0.977372
v -0.918754 -2.835133 26.110855
vn 0.576429 0.744317 -0.337227
v -1.752141 13.911808 13.274671
vn 0.425548 0.186705 -0.885466
v -1.291761 6.283181 10.081335
vn -0.961745 0.272380 0.029255
v -6.885649 11.364739 14.086350
vn 0.431626 0.858399 -0.277220
v -3.107289 -6.876743 3.924760
vn 0.006539 -0.826590 -0.562766
v 3.392745 -12.955271 11.458535
vn -0.897571 -0.018472 0.440482
v -5.288923 1.079920 22.343342
vn -0.791984 0.601748 0.103249
v -2.328330 15.759565 20.989368
vn 0.237510 0.966026 0.101899
v 0.062511 31.212231 6.306745
vn -0.013867 -0.700674 -0.713347
v -3.361064 -12.944713 11.305091
vn -0.632629 -0.722852 -0.277967
v -3.286021 -19.127644 21.905113
vn 0.694931 -0.379945 0.610502
v 4.174592 -17.308619 26.633030
vn -0.791863 0.417137 0.446037
v -4.770322 12.907134 21.491930
vn -0.587762 0.142520 0.796382
v -3.599646 8.147797 24.558081
vn -0.954546 0.066377 0.290579
v -6.150826 9.408488 19.501774
vn -0.179899 0.492569 -0.851477
v -0.270038 11.456247 13.657772
vn -0.596428 -0.213980 -0.773619
v -5.810234 8.161260 8.071831
vn 0.023747 0.999622 -0.013876
v -2.909204 16.990097 8.066285
vn -0.364786 -0.007272 -0.931063
v -3.905534 3.748132 9.298057
vn -0.214833 0.327754 -0.920013
v -5.109915 -9.342853 0.723921
vn -0.609175 -0.409518 0.679118
v -3.563175 -17.908741 27.295433
vn 0.572997 -0.664965 -0.479057
v -2.446582 -9.622916 2.295331
vn -0.791770 -0.007626 0.610772
v -4.401680 -8.142296 23.341452
vn -0.470847 0.667017 0.577400
v -1.083490 24.738194 12.411172
vn -0.854834 -0.086416 -0.511655
v -2.143067 26.720930 5.975703
# 64 vertices, 0 vertices normals

f 31//31 51//51 60//60
f 50//50 31//31 60//60
f 1//1 51//51 25//25
f 31//31 18//18 25//25
f 25//25 51//51 31//31
f 60//60 51//51 1//1
f 17//17 25//25 18//18
f 7//7 17//17 45//45
f 7//7 6//6 2//2
f 17//17 18//18 45//45
f 9//9 19//19 2//2
f 33//33 2//2 5//5
f 5//5 45//45 49//49
f 20//20 23//23 10//10
f 13//13 10//10 3//3
f 20//20 10//10 13//13
f 48//48 63//63 27//27
f 27//27 15//15 14//14
f 4//4 26//26 16//16
f 11//11 8//8 21//21
f 23//23 21//21 12//12
f 9//9 12//12 8//8
f 8//8 19//19 9//9
f 6//6 7//7 45//45
f 24//24 8//8 12//12
f 12//12 21//21 24//24
f 13//13 26//26 4//4
f 23//23 28//28 10//10
f 40//40 1//1 26//26
f 6//6 5//5 2//2
f 27//27 14//14 48//48
f 15//15 10//10 28//28
f 15//15 27//27 10//10
f 27//27 3//3 10//10
f 20//20 11//11 23//23
f 2//2 33//33 9//9
f 16//16 2//2 19//19
f 16//16 25//25 17//17
f 17//17 2//2 16//16
f 2//2 17//17 7//7
f 5//5 6//6 45//45
f 19//19 4//4 16//16
f 20//20 4//4 11//11
f 4//4 19//19 11//11
f 19//19 8//8 11//11
f 22//22 55//55 12//12
f 23//23 12//12 55//55
f 20//20 13//13 4//4
f 8//8 24//24 21//21
f 23//23 55//55 41//41
f 21//21 23//23 11//11
f 12//12 9//9 22//22
f 28//28 14//14 15//15
f 23//23 47//47 28//28
f 27//27 63//63 3//3
f 16//16 26//26 25//25
f 25//25 26//26 1//1
f 26//26 13//13 40//40
f 30//30 62//62 29//29
f 62//62 30//30 60//60
f 60//60 30//30 50//50
f 1//1 62//62 60//60
f 62//62 1//1 40//40
f 50//50 18//18 31//31
f 37//37 29//29 32//32
f 30//30 49//49 50//50
f 37//37 32//32 44//44
f 58//58 32//32 36//36
f 29//29 36//36 32//32
f 33//33 5//5 49//49
f 58//58 42//42 9//9
f 42//42 22//22 9//9
f 44//44 61//61 59//59
f 44//44 59//59 37//37
f 13//13 53//53 40//40
f 34//34 57//57 35//35
f 54//54 46//46 53//53
f 56//56 38//38 39//39
f 54//54 36//36 46//46
f 61//61 49//49 37//37
f 37//37 59//59 61//61
f 41//41 38//38 47//47
f 34//34 39//39 38//38
f 57//57 39//39 35//35
f 40//40 53//53 46//46
f 55//55 42//42 41//41
f 22//22 42//42 55//55
f 47//47 43//43 52//52
f 38//38 43//43 47//47
f 42//42 39//39 41//41
f 30//30 37//37 49//49
f 49//49 61//61 44//44
f 44//44 32//32 49//49
f 3//3 53//53 13//13
f 30//30 29//29 37//37
f 40//40 46//46 62//62
f 3//3 63//63 47//47
f 64//64 47//47 63//63
f 28//28 47//47 64//64
f 48//48 14//14 64//64
f 46//46 29//29 62//62
f 58//58 33//33 32//32
f 36//36 29//29 46//46
f 49//49 32//32 33//33
f 18//18 50//50 49//49
f 58//58 36//36 56//56
f 43//43 56//56 36//36
f 36//36 54//54 43//43
f 54//54 52//52 43//43
f 57//57 34//34 38//38
f 56//56 43//43 38//38
f 52//52 53//53 3//3
f 54//54 53//53 52//52
f 3//3 47//47 52//52
f 39//39 57//57 41//41
f 41//41 57//57 38//38
f 33//33 58//58 9//9
f 42//42 58//58 56//56
f 56//56 39//39 42//42
f 28//28 64//64 14//14
f 41//41 47//47 23//23
f 39//39 34//34 35//35
f 48//48 64//64 63//63
f 45//45 18//18 49//49
# 124 faces, 0 coords texture

# End of File
